<svg width="24" height="27" viewBox="0 0 24 27" fill="none" xmlns="http://www.w3.org/2000/svg">
<path d="M19.068 13.954C19.0274 10.6634 21.7492 9.079 21.8711 8.99775C20.3274 6.76338 17.9305 6.43838 17.118 6.43838C15.1274 6.23525 13.1774 7.65713 12.1617 7.65713C11.1055 7.65713 9.56175 6.479 7.8555 6.51963C5.66175 6.56025 3.6305 7.81963 2.53362 9.76963C0.217999 13.7509 1.96487 19.6415 4.15862 22.8915C5.2555 24.4759 6.5555 26.2228 8.26175 26.1821C9.92737 26.1009 10.5367 25.1259 12.5274 25.1259C14.518 25.1259 15.0867 26.1821 16.793 26.1415C18.5805 26.1009 19.6774 24.5571 20.7336 22.9728C21.993 21.1446 22.5211 19.3571 22.5617 19.2759C22.5211 19.1946 19.1086 17.8946 19.068 13.954Z" fill="#959DAE"/>
<path d="M15.818 4.32585C16.7117 3.22898 17.3211 1.68523 17.1586 0.141479C15.8586 0.182104 14.2742 1.03523 13.3399 2.1321C12.5274 3.1071 11.7961 4.65085 11.9586 6.15398C13.4211 6.23523 14.8836 5.42273 15.818 4.32585Z" fill="#959DAE"/>
</svg>
