<svg width="24" height="25" viewBox="0 0 24 25" fill="none" xmlns="http://www.w3.org/2000/svg">
<path fill-rule="evenodd" clip-rule="evenodd" d="M16 12.8242C16 15.0333 14.2091 16.8242 12 16.8242C9.79086 16.8242 8 15.0333 8 12.8242C8 10.6151 9.79086 8.82422 12 8.82422C14.2091 8.82422 16 10.6151 16 12.8242ZM14 12.8242C14 13.9288 13.1046 14.8242 12 14.8242C10.8954 14.8242 10 13.9288 10 12.8242C10 11.7196 10.8954 10.8242 12 10.8242C13.1046 10.8242 14 11.7196 14 12.8242Z" fill="#97999B"/>
<path fill-rule="evenodd" clip-rule="evenodd" d="M12.0001 3.82422C17.5916 3.82422 22.2899 7.64854 23.622 12.8242C22.2899 17.9999 17.5916 21.8242 12.0001 21.8242C6.4086 21.8242 1.7103 17.9999 0.378174 12.8242C1.7103 7.64854 6.4086 3.82422 12.0001 3.82422ZM12.0001 19.8242C7.52455 19.8242 3.73144 16.8823 2.45735 12.8242C3.73144 8.76608 7.52455 5.82422 12.0001 5.82422C16.4757 5.82422 20.2688 8.76608 21.5429 12.8242C20.2688 16.8823 16.4757 19.8242 12.0001 19.8242Z" fill="#97999B"/>
<rect x="21.7854" y="23.499" width="29.3997" height="1.5" rx="0.75" transform="rotate(-134.991 21.7854 23.499)" fill="#97999B"/>
</svg>
