<svg width="24" height="25" viewBox="0 0 24 25" fill="none" xmlns="http://www.w3.org/2000/svg">
<path fill-rule="evenodd" clip-rule="evenodd" d="M16 12.6621C16 14.8712 14.2091 16.6621 12 16.6621C9.79086 16.6621 8 14.8712 8 12.6621C8 10.453 9.79086 8.66211 12 8.66211C14.2091 8.66211 16 10.453 16 12.6621ZM14 12.6621C14 13.7667 13.1046 14.6621 12 14.6621C10.8954 14.6621 10 13.7667 10 12.6621C10 11.5575 10.8954 10.6621 12 10.6621C13.1046 10.6621 14 11.5575 14 12.6621Z" fill="#97999B"/>
<path fill-rule="evenodd" clip-rule="evenodd" d="M12.0001 3.66211C17.5916 3.66211 22.2899 7.48643 23.622 12.6621C22.2899 17.8378 17.5916 21.6621 12.0001 21.6621C6.4086 21.6621 1.7103 17.8378 0.378174 12.6621C1.7103 7.48643 6.4086 3.66211 12.0001 3.66211ZM12.0001 19.6621C7.52455 19.6621 3.73144 16.7202 2.45735 12.6621C3.73144 8.60397 7.52455 5.66211 12.0001 5.66211C16.4757 5.66211 20.2688 8.60397 21.5429 12.6621C20.2688 16.7202 16.4757 19.6621 12.0001 19.6621Z" fill="#97999B"/>
</svg>
