<svg width="38" height="36" viewBox="0 0 38 36" fill="none" xmlns="http://www.w3.org/2000/svg">
<path fill-rule="evenodd" clip-rule="evenodd" d="M10.0098 11.8379C10.0098 11.2856 10.4575 10.8379 11.0098 10.8379H27C27.5523 10.8379 28 11.2856 28 11.8379V23.1621C28 24.2667 27.1046 25.1621 26 25.1621H12C10.8954 25.1621 10 24.2667 10 23.1621V12.1621C10 12.1145 10.0033 12.0677 10.0098 12.0218V11.8379ZM12 14.0617V23.1621H26V14.062L21.1215 18.9405C19.9499 20.1121 18.0504 20.1121 16.8788 18.9405L12 14.0617ZM13.5723 12.8055H24.428L19.7073 17.5263C19.3168 17.9168 18.6836 17.9168 18.2931 17.5263L13.5723 12.8055Z" fill="#959DAE"/>
</svg>
