<svg width="38" height="42" viewBox="0 0 38 42" fill="none" xmlns="http://www.w3.org/2000/svg">
<path fill-rule="evenodd" clip-rule="evenodd" d="M25 19.1621C26.6569 19.1621 28 20.5052 28 22.1621V28.1621C28 29.819 26.6569 31.1621 25 31.1621H13C11.3432 31.1621 10 29.819 10 28.1621V22.1621C10 20.5052 11.3432 19.1621 13 19.1621V16.1621C13 12.8484 15.6863 10.1621 19 10.1621C22.3137 10.1621 25 12.8484 25 16.1621V19.1621ZM19 12.1621C21.2091 12.1621 23 13.953 23 16.1621V19.1621H15V16.1621C15 13.953 16.7909 12.1621 19 12.1621ZM25 21.1621H13C12.4477 21.1621 12 21.6098 12 22.1621V28.1621C12 28.7144 12.4477 29.1621 13 29.1621H25C25.5523 29.1621 26 28.7144 26 28.1621V22.1621C26 21.6098 25.5523 21.1621 25 21.1621Z" fill="#959DAE"/>
</svg>
