<svg width="64" height="64" viewBox="0 0 16 16" fill="none" xmlns="http://www.w3.org/2000/svg">
    <path
        d="M8.00002 2.88749C8.37076 2.88749 8.67131 2.58695 8.67131 2.21621C8.67131 1.84547 8.37076 1.54492 8.00002 1.54492C7.62928 1.54492 7.32874 1.84547 7.32874 2.21621C7.32874 2.58695 7.62928 2.88749 8.00002 2.88749Z"
        fill="white" />
    <path
        d="M14.9021 4.81523C15.2729 4.81523 15.5734 4.51468 15.5734 4.14394C15.5734 3.7732 15.2729 3.47266 14.9021 3.47266C14.5314 3.47266 14.2308 3.7732 14.2308 4.14394C14.2308 4.51468 14.5314 4.81523 14.9021 4.81523Z"
        fill="white" />
    <path
        d="M1.09792 4.81523C1.46866 4.81523 1.76921 4.51468 1.76921 4.14394C1.76921 3.7732 1.46866 3.47266 1.09792 3.47266C0.727181 3.47266 0.426636 3.7732 0.426636 4.14394C0.426636 4.51468 0.727181 4.81523 1.09792 4.81523Z"
        fill="white" />
    <path
        d="M13.6802 12.561C13.6802 12.3717 13.5253 12.2168 13.3359 12.2168H3.00843C2.8191 12.2168 2.66418 12.3717 2.66418 12.561V14.1102C2.66418 14.2995 2.8191 14.4544 3.00843 14.4544H13.3359C13.5253 14.4544 13.6802 14.2995 13.6802 14.1102V12.561Z"
        fill="white" />
    <path
        d="M0.874137 5.48621L2.38883 10.8221C2.45768 11.0286 2.64702 11.1835 2.87078 11.1835H8.0001H13.1294C13.3532 11.1835 13.5425 11.0458 13.6114 10.8221L15.1261 5.48621C15.1605 5.34851 15.04 5.22803 14.9023 5.27966L10.5303 6.846C10.4615 6.88042 10.3754 6.846 10.3238 6.77715L8.1378 3.48957C8.06895 3.38629 7.91404 3.38629 7.84519 3.48957L5.6592 6.75994C5.60757 6.82879 5.5215 6.86321 5.45265 6.82879L1.0979 5.27966C0.960199 5.22803 0.822499 5.34851 0.874137 5.48621Z"
        fill="white" />
</svg>
