<svg width="310" height="165" viewBox="0 0 310 165" fill="none" xmlns="http://www.w3.org/2000/svg">
<g clip-path="url(#clip0_1_677)">
<g clip-path="url(#clip1_1_677)">
<path d="M140.446 145.656C139.364 145.343 138.24 145.195 137.113 145.219C136.073 145.271 135.046 145.474 134.064 145.823C131.97 146.648 129.996 147.749 128.194 149.098C126.35 150.452 124.641 151.849 123.4 152.998C122.159 154.147 121.338 154.832 121.338 154.832C122.315 154.935 123.297 154.984 124.279 154.977C126.468 155.001 128.652 154.777 130.79 154.307C133.231 153.845 135.539 152.845 137.545 151.38C138.472 150.748 139.224 149.892 139.731 148.892C140.238 147.891 140.484 146.778 140.446 145.656Z" fill="url(#paint0_linear_1_677)"/>
<path d="M130.45 139.065C131.95 140.624 133.814 141.785 135.874 142.444C136.849 142.719 137.874 142.767 138.871 142.585C139.9 142.403 140.85 141.916 141.6 141.188C140.902 139.269 139.641 137.604 137.983 136.412C136.402 135.288 134.646 134.433 132.786 133.883C131.186 133.402 129.558 133.019 127.911 132.735C126.601 132.499 125.804 132.37 125.804 132.37C125.804 132.37 125.899 132.607 126.063 133.011C126.227 133.416 126.576 133.942 126.964 134.609C127.937 136.233 129.108 137.73 130.45 139.065Z" fill="url(#paint1_linear_1_677)"/>
<path d="M117.576 149.84C118.577 149.424 119.469 148.783 120.182 147.968C120.896 147.152 121.413 146.183 121.692 145.135C120.881 144.498 119.95 144.03 118.955 143.758C117.96 143.487 116.92 143.417 115.898 143.554C113.676 143.86 111.502 144.442 109.425 145.288C107.302 146.146 105.196 146.998 103.612 147.638L100.967 148.707C100.967 148.707 101.241 148.851 101.754 149.056C102.268 149.26 103.005 149.531 103.904 149.815C106.066 150.507 108.308 150.92 110.574 151.042C112.97 151.181 115.365 150.77 117.576 149.84Z" fill="url(#paint2_linear_1_677)"/>
<path d="M118.267 140.105C119.124 140.645 120.102 140.965 121.112 141.036C122.122 141.106 123.134 140.926 124.057 140.511C124.064 138.424 123.305 136.406 121.922 134.842C120.628 133.401 119.123 132.164 117.46 131.173C116.117 130.355 114.734 129.604 113.317 128.924C112.769 128.636 112.312 128.428 111.998 128.28C111.843 128.197 111.682 128.125 111.518 128.062C111.518 128.062 111.606 128.282 111.588 128.721C111.675 129.332 111.795 129.938 111.949 130.536C112.371 132.316 113.06 134.022 113.994 135.595C115.013 137.436 116.484 138.989 118.267 140.105Z" fill="url(#paint3_linear_1_677)"/>
<path d="M87.0169 135.534L84.3281 135.816C84.3281 135.816 84.5078 136.018 84.8567 136.348C85.2056 136.678 85.7406 137.128 86.3975 137.687C87.0545 138.245 87.8261 138.796 88.6924 139.388C89.1324 139.7 89.5824 139.989 90.0561 140.288L90.4214 140.513L90.8714 140.802L91.8084 141.326C94.1284 142.633 96.7623 143.278 99.4229 143.191C100.525 143.153 101.6 142.842 102.552 142.286C103.504 141.73 104.303 140.946 104.878 140.005C103.648 138.292 101.836 137.086 99.7821 136.612C99.2819 136.441 98.7348 136.348 98.1909 136.215C97.647 136.082 97.0662 136.003 96.5023 135.917C95.9383 135.831 95.327 135.725 94.7293 135.653C94.1317 135.58 93.6219 135.532 93.0615 135.503C91.0479 135.386 89.0291 135.396 87.0169 135.534Z" fill="url(#paint4_linear_1_677)"/>
<path d="M102.801 133.41C103.406 134.208 104.213 134.83 105.139 135.211C106.065 135.592 107.076 135.719 108.067 135.578C108.655 133.622 108.586 131.528 107.872 129.615C107.287 128.013 106.546 126.473 105.66 125.016C105.223 124.277 104.734 123.57 104.197 122.9C103.658 122.196 103.136 121.583 102.678 121.082C102.221 120.58 101.804 120.18 101.533 119.897C101.262 119.614 101.119 119.456 101.119 119.456L100.96 120.129C100.884 120.571 100.802 121.193 100.711 121.936C100.531 123.825 100.538 125.728 100.733 127.616C100.789 128.143 100.868 128.679 100.972 129.226C101.058 129.734 101.181 130.235 101.342 130.724C101.493 131.218 101.687 131.697 101.922 132.157C102.176 132.601 102.47 133.021 102.801 133.41Z" fill="url(#paint5_linear_1_677)"/>
<path d="M81.8522 129.206C82.354 129.489 82.8858 129.715 83.4377 129.879C83.9597 130.056 84.4938 130.194 85.0357 130.293C86.0762 130.538 87.1584 130.547 88.2025 130.319C89.2466 130.09 90.226 129.63 91.0685 128.972C90.8523 127.954 90.4 127.002 89.7482 126.191C89.4386 125.811 89.0887 125.465 88.7047 125.161C88.3055 124.855 87.8898 124.571 87.4594 124.311C85.5479 123.23 83.4685 122.479 81.3082 122.089C79.3216 121.627 77.3098 121.281 75.2831 121.052L72.592 120.747C72.7244 120.972 72.8706 121.188 73.0299 121.394C73.3251 121.785 73.7694 122.351 74.322 122.991C75.6657 124.617 77.1974 126.079 78.8851 127.345C79.8214 128.046 80.8138 128.668 81.8522 129.206Z" fill="url(#paint6_linear_1_677)"/>
<path d="M92.6352 123.925C93.3939 124.589 94.3029 125.056 95.2832 125.288C96.5808 123.641 97.1983 121.559 97.0088 119.47C96.9711 118.978 96.8981 118.49 96.7905 118.009C96.6951 117.773 96.6907 117.519 96.6358 117.287L96.4575 116.554C96.2055 115.602 95.8757 114.673 95.4713 113.775C94.6718 112.137 93.8723 110.498 93.1489 109.339C92.8024 108.773 92.4868 108.332 92.2763 108.005C92.1807 107.839 92.0764 107.678 91.9639 107.523L91.6862 108.145C91.5225 108.564 91.3154 109.119 91.0954 109.836C90.5332 111.635 90.1725 113.491 90.0201 115.37C89.8576 117.474 90.1692 119.587 90.9317 121.554C91.1093 122.013 91.3557 122.443 91.6623 122.828C91.9401 123.232 92.2669 123.601 92.6352 123.925Z" fill="url(#paint7_linear_1_677)"/>
<path d="M71.4139 113.711C71.8589 114.084 72.3306 114.425 72.8252 114.729C73.3072 115.012 73.8077 115.262 74.3233 115.477C75.3027 115.914 76.3664 116.128 77.4381 116.106C78.5099 116.083 79.5632 115.823 80.5227 115.345C80.5105 114.309 80.2471 113.291 79.7551 112.379C79.519 111.947 79.2368 111.541 78.9134 111.17C78.6094 110.776 78.2763 110.406 77.9169 110.062C77.1197 109.339 76.2458 108.706 75.3107 108.173L73.8597 107.347C73.376 107.072 72.8654 106.827 72.3716 106.576C70.353 105.606 68.2472 104.81 66.7463 104.2C65.2455 103.591 64.1777 103.277 64.1777 103.277C64.1777 103.277 64.6071 104.339 65.2546 105.941C65.7086 106.825 66.2123 107.682 66.7631 108.509C67.0618 108.957 67.3674 109.422 67.6966 109.897C68.0297 110.381 68.3934 110.844 68.7854 111.282C69.5998 112.156 70.4784 112.968 71.4139 113.711Z" fill="url(#paint8_linear_1_677)"/>
<path d="M85.1307 112.148C86.702 110.802 87.722 108.923 87.9958 106.871C88.0517 106.391 88.0791 105.908 88.078 105.425C88.1126 104.94 88.1186 104.453 88.0959 103.966C88.0444 103.003 87.9131 102.046 87.7034 101.104C87.5143 100.2 87.3588 99.2818 87.15 98.5227C87.0001 98.1518 86.8501 97.7808 86.8149 97.4027C86.7797 97.0246 86.5491 96.7451 86.4332 96.4585C86.2501 95.7775 86.0255 95.1084 85.7605 94.4549C85.2569 95.1007 84.7896 95.7742 84.361 96.4722L83.7306 97.5313C83.5127 97.9136 83.3017 98.3128 83.1142 98.722C82.6963 99.6309 82.3413 100.567 82.0519 101.525C81.8985 102.019 81.752 102.529 81.636 103.066L81.4838 103.854C81.4476 104.104 81.4352 104.364 81.4227 104.624C81.3465 105.646 81.4187 106.674 81.637 107.676C81.7222 108.157 81.8599 108.628 82.0475 109.079C82.246 109.523 82.4945 109.942 82.7881 110.329C83.411 111.116 84.2147 111.74 85.1307 112.148Z" fill="url(#paint9_linear_1_677)"/>
<path d="M67.3502 89.4008C66.5104 88.681 65.6268 87.9984 64.8043 87.3697L62.5671 85.7631C61.2063 84.7242 60.35 84.1091 60.35 84.1091C60.35 84.1091 60.4657 85.2197 60.7863 86.9341C60.9887 87.7743 61.2319 88.7156 61.5871 89.7883C61.7916 90.2941 62.0029 90.8168 62.221 91.3564C62.4391 91.896 62.664 92.4524 62.9025 93.0426C63.4234 94.115 64.0349 95.141 64.7302 96.1094C65.4374 97.0098 66.2521 97.8202 67.1562 98.5225C67.9961 99.1982 68.9809 99.6703 70.0335 99.9017C71.086 100.133 72.1777 100.117 73.2229 99.8562C73.3263 99.344 73.365 98.8209 73.3384 98.299C73.3293 97.8022 73.2674 97.3077 73.1538 96.824C72.9278 95.8564 72.5062 94.9453 71.9148 94.1469C71.3366 93.2568 70.6671 92.4295 69.9173 91.6783C69.0169 91.0026 68.18 90.1443 67.3502 89.4008Z" fill="url(#paint10_linear_1_677)"/>
<path d="M82.1261 92.8832C82.5247 92.0102 82.8114 91.0902 82.9795 90.1451C83.1441 89.2532 83.2377 88.3495 83.2593 87.4427C83.2878 86.9799 83.2895 86.5477 83.3149 86.1255C83.3402 85.7033 83.3588 85.2643 83.3504 84.8557C83.3643 84.0654 83.3074 83.343 83.2679 82.7116C83.2644 82.021 83.2211 81.3311 83.1383 80.6454C82.4821 81.1411 81.8521 81.6707 81.2511 82.2322C79.8933 83.4785 78.7081 84.901 77.7272 86.4617C77.4337 86.8993 77.1737 87.3585 76.9495 87.8354C76.7217 88.3017 76.5229 88.7816 76.3543 89.2725C76.0221 90.2141 75.8259 91.1983 75.7717 92.1955C75.7477 93.1593 75.9155 94.1183 76.2653 95.0169C76.4325 95.4678 76.6749 95.8872 76.9822 96.2572C77.3101 96.6577 77.6907 97.012 78.1136 97.3103C79.9276 96.3497 81.3474 94.7832 82.1261 92.8832Z" fill="url(#paint11_linear_1_677)"/>
<path d="M70.3375 81.6613C70.4641 81.1846 70.5358 80.6949 70.5513 80.2018C70.5564 79.7192 70.5127 79.2374 70.4208 78.7637C70.326 78.2768 70.2036 77.7958 70.0541 77.323C69.7166 76.3178 69.262 75.3559 68.6996 74.4572C68.1391 73.5068 67.5616 72.5632 66.9 71.6536C65.5598 69.8414 64.2336 68.1608 63.142 66.915C62.0504 65.6692 61.3385 64.878 61.3385 64.878L61.2301 65.6281C61.1814 66.1381 61.1267 66.8272 61.0861 67.6479C60.9953 69.76 61.153 71.8756 61.5561 73.951C61.8055 75.1071 62.152 76.2401 62.5919 77.3379C62.797 77.8792 63.0533 78.3996 63.3573 78.8921C63.6412 79.3743 63.9588 79.8359 64.3077 80.2734C64.9441 81.1159 65.7535 81.8122 66.6815 82.3152C67.6496 82.7864 68.7131 83.0278 69.7893 83.0207C70.0214 82.5891 70.2053 82.1332 70.3375 81.6613Z" fill="url(#paint12_linear_1_677)"/>
<path d="M84.0545 67.1518L84.1569 66.5807L83.5167 66.8395C83.1123 67.003 82.5563 67.2277 81.8863 67.6555C81.1446 68.0709 80.4253 68.5253 79.7316 69.0168C79.3104 69.1871 78.9373 69.5733 78.5537 69.8853C78.1702 70.1972 77.7935 70.5261 77.4135 70.8954C76.6505 71.607 75.9647 72.3971 75.3673 73.2526C74.7978 74.0908 74.3418 75.0007 74.0109 75.9587C73.8571 76.4214 73.7614 76.9016 73.7262 77.388C73.6807 77.8537 73.6927 78.3232 73.762 78.7859C73.8219 79.261 73.944 79.7261 74.1252 80.1692C74.3374 80.6371 74.6128 81.0736 74.9436 81.4666C75.9876 81.2627 76.9828 80.8604 77.8753 80.2816C78.6736 79.724 79.3862 79.0527 79.9904 78.2888C80.2879 77.9107 80.5592 77.5126 80.8025 77.0975L81.1444 76.4885L81.4795 75.8626C81.9043 75.0429 82.2534 74.1861 82.5225 73.3028C82.8242 72.4902 83.0779 71.6606 83.2824 70.8183L83.4084 70.2573C83.446 70.0705 83.496 69.8864 83.5582 69.7063L83.7838 68.7128C83.9364 68.0234 84.0019 67.5065 84.0545 67.1518Z" fill="url(#paint13_linear_1_677)"/>
<path d="M70.7773 66.2611C71.4594 65.5115 71.9412 64.6015 72.1778 63.6157C72.4388 62.6707 72.5061 61.6827 72.3757 60.7109C72.0983 58.571 71.4997 56.485 70.6 54.5236C70.3956 54.0178 70.1843 53.495 69.9866 53.0061C69.789 52.5171 69.5845 52.0112 69.3937 51.5391C69.012 50.5949 68.4891 49.7862 68.1049 49.0783C67.1951 47.7002 66.7191 46.8137 66.7191 46.8137L66.4655 47.544C66.3153 47.997 66.085 48.6394 65.889 49.464C65.6377 50.3877 65.4408 51.3253 65.2992 52.2722C65.1225 53.3734 65.0152 54.4847 64.978 55.5995C64.9598 56.7629 65.0365 57.9259 65.2075 59.0769C65.3958 60.1791 65.7243 61.2527 66.1852 62.2716C66.6082 63.2349 67.2395 64.0924 68.0336 64.7823C68.8276 65.4722 69.7647 65.9772 70.7773 66.2611Z" fill="url(#paint14_linear_1_677)"/>
<path d="M85.3193 59.1275C85.7956 58.3661 86.2483 57.5946 86.6166 56.8572C86.985 56.1198 87.3165 55.4366 87.5573 54.8685L88.1761 53.4413L88.3732 52.9105C87.5591 53.0586 86.7542 53.253 85.9623 53.4927C85.2884 53.7651 84.4387 53.9908 83.5626 54.345C82.6373 54.7192 81.743 55.1659 80.888 55.6811C79.0807 56.6785 77.5433 58.1011 76.4086 59.8261C75.9442 60.6504 75.645 61.5576 75.528 62.4968C75.4462 63.4824 75.6234 64.4725 76.042 65.3688C78.1036 65.4287 80.1158 64.7339 81.7011 63.4148C82.4599 62.8318 83.1411 62.1543 83.7284 61.3987C84.3175 60.6846 84.8495 59.9252 85.3193 59.1275Z" fill="url(#paint15_linear_1_677)"/>
<path d="M114.152 141.416C121.772 143.539 129.67 144.487 137.575 144.228C143.984 144.227 152.492 145.005 161.04 145.493C155.924 149.757 150.541 153.689 144.923 157.265C144.29 157.639 149.161 159.75 149.655 159.275C154.874 155.067 160.033 150.47 165.006 145.655C171.945 146.169 178.92 145.839 185.779 144.674C186.501 144.519 187.145 140.198 186.42 140.295C180.298 141.566 174.098 142.427 167.861 142.873C176.145 134.66 183.827 126.023 190.293 118.113C197.245 109.853 201.337 99.5622 201.958 88.779C202.778 78.4294 201.522 68.0191 198.264 58.1598C193.518 44.7189 183.845 33.5436 172.473 25.1937C169.102 22.6864 165.564 20.4135 161.882 18.3912C161.78 17.5122 161.479 16.668 161.002 15.9223C160.458 15.0733 159.744 14.3467 158.904 13.7884C157.082 12.6417 155.013 11.945 152.869 11.7556C150.997 11.576 149.11 11.6334 147.253 11.9264C146.494 12.037 145.904 12.1775 145.439 12.2871L145.055 12.4032L144.886 12.4713L144.941 12.6062L145.306 12.9292C145.618 13.2152 146.085 13.5952 146.651 14.0728C148.028 15.2221 149.464 16.2982 150.953 17.2967C151.772 17.8706 152.634 18.3814 153.531 18.8245C153.969 19.0504 154.422 19.2474 154.886 19.4143C155.33 19.5933 155.788 19.7363 156.255 19.8419C157.175 20.0707 158.129 20.1304 159.07 20.0182C159.815 19.91 160.539 19.6901 161.218 19.366C168.278 23.1672 174.779 27.9261 180.537 33.5075C187.801 40.358 193.433 48.7549 197.015 58.0762C200.644 68.5427 201.94 79.676 200.811 90.6942C200.143 98.97 197.259 106.912 192.463 113.685C187.987 119.73 183.018 125.393 177.607 130.616C173.617 134.564 168.767 138.956 163.799 143.201C150.428 144.081 137.006 143.769 123.689 142.269C117.99 141.587 112.454 139.907 107.335 137.306C102.254 134.516 97.6501 130.934 93.6957 126.694C85.8792 119.154 79.8798 109.934 76.152 99.7315C72.0719 87.6493 72.1112 74.3139 74.5671 61.8652C75.2062 58.6168 76.0218 55.4057 77.0103 52.2464C77.698 52.0084 78.3479 51.673 78.9403 51.2504C79.6841 50.6649 80.3267 49.9612 80.8425 49.1673C81.1048 48.7668 81.3346 48.346 81.5295 47.9087C81.7605 47.4439 81.9593 46.9637 82.1247 46.4716C82.4563 45.5281 82.7209 44.5624 82.9167 43.5817C83.2955 41.8343 83.5827 40.0681 83.777 38.2906C83.8586 37.571 83.9237 36.9562 83.9559 36.5509C83.9764 36.3805 84.0061 36.2113 84.045 36.0441L83.9905 35.9092L83.8557 35.9637L83.4008 36.1475C82.8636 36.4513 82.3443 36.7857 81.8454 37.149C80.3046 38.2511 78.9111 39.5461 77.699 41.0024C76.2905 42.6353 75.2894 44.5795 74.778 46.6753C74.5489 47.6584 74.5401 48.6802 74.7525 49.6673C74.9236 50.516 75.2805 51.3164 75.7978 52.0107C73.5046 59.3481 72.1773 66.9538 71.8492 74.6355C71.3025 83.8876 72.61 93.1565 75.6947 101.898C79.3112 111.911 85.8137 120.288 93.1804 127.844C98.9456 134.029 106.15 138.692 114.152 141.416Z" fill="url(#paint16_linear_1_677)"/>
<path d="M181.04 35.1874C180.678 34.8674 180.278 34.5942 179.849 34.3742C178.963 33.9007 178.017 33.5506 177.037 33.3335C176.011 33.1413 174.97 33.0498 173.927 33.0603C173.404 33.0756 172.898 33.084 172.405 33.1262C171.913 33.1684 171.417 33.2511 170.955 33.3202C170.116 33.4537 169.285 33.6323 168.466 33.8553C167.758 34.0435 167.182 34.2176 166.72 34.3846L166.08 34.6434L166.533 34.9897C166.841 35.2183 167.241 35.5276 167.758 35.8872L168.618 36.4618L169.102 36.737L169.589 37.0697C170.321 37.5334 171.08 37.9537 171.862 38.3284C172.672 38.7711 173.518 39.1444 174.391 39.4444L175.067 39.6616L175.736 39.862C176.192 39.9832 176.656 40.0775 177.124 40.1443C178.095 40.2716 179.08 40.2569 180.046 40.1007C181.093 39.9059 182.09 39.503 182.978 38.9157C182.945 38.403 182.84 37.8974 182.665 37.4141C182.491 36.9744 182.258 36.5605 181.972 36.1838C181.701 35.8164 181.388 35.482 181.04 35.1874Z" fill="url(#paint17_linear_1_677)"/>
<path d="M175.429 25.1367C175.971 24.224 176.304 23.2016 176.402 22.144C176.5 21.0864 176.361 20.02 175.996 19.0226C175.619 17.9697 175.109 16.9693 174.479 16.0459C173.8 15.1011 173.047 14.2116 172.227 13.3857C171.414 12.5678 170.549 11.8037 169.637 11.0981C168.877 10.5157 168.084 9.97822 167.261 9.48861C166.554 9.04861 165.935 8.72989 165.512 8.50844L164.924 8.21663C164.924 8.21663 165.158 9.27956 165.606 10.8247C165.912 11.5834 166.119 12.5789 166.413 13.4998C166.603 13.972 166.794 14.4441 166.898 14.9908C167.001 15.5375 167.307 16.0025 167.518 16.5252C168.236 18.5601 169.255 20.4758 170.54 22.2085C171.122 22.9911 171.854 23.649 172.694 24.1429C173.515 24.6858 174.452 25.0264 175.429 25.1367Z" fill="url(#paint18_linear_1_677)"/>
<path d="M166.958 24.4018C164.939 23.9276 162.836 23.9498 160.829 24.4663C159.859 24.6987 158.906 24.9987 157.977 25.364C157.101 25.7182 156.292 26.0451 155.659 26.4187C154.923 26.7966 154.209 27.2162 153.521 27.6753L154.048 27.9133L155.512 28.577C156.104 28.8283 156.827 29.0656 157.588 29.3467C158.348 29.6278 159.21 29.868 160.105 30.0946C161.015 30.3348 161.942 30.5044 162.878 30.602C163.826 30.7205 164.785 30.7343 165.737 30.643C167.779 30.4902 169.697 29.6034 171.137 28.1462C170.813 27.2119 170.253 26.3773 169.511 25.7237C168.761 25.1097 167.892 24.6595 166.958 24.4018Z" fill="url(#paint19_linear_1_677)"/>
</g>
<g clip-path="url(#clip2_1_677)">
<path d="M143.71 33.8452L144.181 33.5058L143.541 33.247C143.136 33.0835 142.58 32.8588 141.801 32.7008C140.979 32.4841 140.146 32.3111 139.306 32.1825C138.884 32.0122 138.348 32.0307 137.855 31.9885C137.363 31.9463 136.863 31.921 136.333 31.9226C135.29 31.9041 134.248 31.9957 133.224 32.1958C132.232 32.4028 131.272 32.7402 130.368 33.1993C129.936 33.4251 129.533 33.704 129.17 34.0293C128.814 34.3325 128.496 34.6785 128.224 35.0595C127.937 35.4426 127.702 35.8619 127.524 36.3065C127.352 36.7905 127.247 37.2957 127.211 37.8082C128.104 38.387 129.099 38.7893 130.143 38.9932C131.105 39.147 132.083 39.1594 133.049 39.03C133.525 38.9648 133.997 38.8671 134.461 38.7376L135.13 38.5372L135.806 38.32C136.681 38.0257 137.527 37.6522 138.334 37.204C139.116 36.8293 139.875 36.409 140.607 35.9453L141.088 35.6295C141.245 35.5213 141.408 35.4237 141.578 35.3374L142.431 34.7797C143.02 34.39 143.426 34.0638 143.71 33.8452Z" fill="url(#paint20_linear_1_677)"/>
<path d="M134.781 23.9787C135.793 23.9137 136.772 23.5941 137.627 23.0495C138.471 22.5514 139.206 21.8876 139.788 21.0982C141.075 19.3666 142.094 17.4506 142.81 15.4149C143.015 14.9091 143.226 14.3864 143.424 13.8974C143.621 13.4084 143.826 12.9025 144.017 12.4304C144.398 11.4862 144.584 10.5413 144.8 9.7653C145.103 8.14203 145.377 7.17379 145.377 7.17379L144.687 7.52266C144.264 7.74411 143.652 8.04598 142.938 8.50283C142.116 8.99245 141.322 9.52988 140.563 10.1124C139.67 10.7815 138.821 11.5061 138.02 12.2819C137.198 13.1059 136.445 13.9955 135.768 14.9421C135.138 15.8655 134.628 16.8659 134.251 17.9188C133.886 18.9054 133.744 19.9608 133.836 21.0087C133.928 22.0566 134.25 23.071 134.781 23.9787Z" fill="url(#paint21_linear_1_677)"/>
<path d="M150.196 28.9538C151.068 28.7373 151.929 28.497 152.706 28.2228C153.484 27.9485 154.197 27.6875 154.765 27.4462L156.202 26.85L156.712 26.6052C156.024 26.1461 155.31 25.7265 154.574 25.3486C153.9 25.0761 153.132 24.6481 152.256 24.2939C151.331 23.92 150.377 23.6199 149.404 23.3962C147.411 22.8576 145.317 22.8123 143.303 23.2643C142.396 23.5343 141.55 23.9788 140.814 24.5729C140.07 25.2248 139.509 26.06 139.187 26.9954C140.628 28.471 142.558 29.3696 144.615 29.5226C145.566 29.6307 146.526 29.6169 147.474 29.4816C148.393 29.3775 149.304 29.201 150.196 28.9538Z" fill="url(#paint22_linear_1_677)"/>
<path d="M113.748 108.164C117.753 114.986 122.775 121.156 128.639 126.463C133.249 130.916 138.826 137.388 144.634 143.678C137.992 143.19 131.388 142.276 124.863 140.944C124.148 140.772 126.185 145.676 126.87 145.678C133.547 146.278 140.451 146.558 147.373 146.551C152.006 151.742 157.251 156.352 162.993 160.28C163.62 160.67 167.086 158.011 166.497 157.577C161.212 154.236 156.154 150.547 151.359 146.534C163.024 146.384 174.55 145.511 184.696 144.316C195.435 143.207 205.529 138.65 213.468 131.327C221.25 124.455 227.581 116.096 232.089 106.742C238.016 93.7781 238.826 79.0205 236.45 65.1133C235.768 60.9681 234.803 56.8749 233.561 52.8624C234.098 52.1589 234.468 51.3426 234.644 50.4752C234.842 49.4867 234.834 48.4679 234.618 47.4832C234.104 45.392 233.101 43.4534 231.69 41.8272C230.469 40.3975 229.073 39.1277 227.534 38.048C226.911 37.6001 226.389 37.2911 225.978 37.0466L225.621 36.863L225.453 36.7949L225.398 36.9298L225.437 37.4162C225.462 37.8384 225.534 38.4363 225.609 39.1728C225.8 40.9559 226.085 42.7276 226.462 44.4807C226.653 45.4627 226.917 46.4288 227.254 47.3706C227.413 47.8378 227.602 48.2941 227.819 48.7368C228.014 49.174 228.244 49.5949 228.506 49.9953C229.009 50.7992 229.654 51.505 230.408 52.0784C231.019 52.518 231.692 52.8629 232.406 53.1016C234.841 60.7409 236.21 68.6808 236.472 76.696C236.935 86.67 235.15 96.6217 231.249 105.814C226.586 115.863 219.781 124.769 211.313 131.908C205.081 137.395 197.489 141.102 189.333 142.64C181.914 143.876 174.406 144.496 166.885 144.492C161.273 144.558 154.733 144.347 148.21 143.947C137.984 135.288 128.548 125.737 120.015 115.405C116.389 110.954 113.576 105.899 111.703 100.471C109.988 94.9347 109.166 89.1593 109.268 83.3628C108.887 72.509 110.98 61.7094 115.389 51.7825C120.85 40.2588 130.145 30.6963 140.562 23.4508C143.279 21.559 146.096 19.8166 149.003 18.2316C149.663 18.5383 150.363 18.7487 151.083 18.8565C152.024 18.9523 152.975 18.8928 153.898 18.6803C154.365 18.5746 154.823 18.4316 155.267 18.2527C155.756 18.0789 156.232 17.8717 156.693 17.6327C157.587 17.1847 158.449 16.6742 159.271 16.1049C160.758 15.1116 162.192 14.0411 163.566 12.8978C164.125 12.4371 164.599 12.0402 164.904 11.7711C165.037 11.6628 165.176 11.5618 165.32 11.4686L165.375 11.3337L165.24 11.2792L164.785 11.0953C164.188 10.9405 163.582 10.8201 162.971 10.7346C161.097 10.4565 159.195 10.4195 157.311 10.6244C155.164 10.8199 153.093 11.5224 151.269 12.6741C150.421 13.2218 149.704 13.9506 149.171 14.808C148.704 15.5372 148.405 16.3608 148.294 17.2195C141.547 20.9025 135.307 25.4495 129.733 30.7456C122.911 37.019 117.41 44.593 113.554 53.0224C109.197 62.7366 108.052 73.2787 108.099 83.8316C107.947 92.2856 109.888 100.645 113.748 108.164Z" fill="url(#paint23_linear_1_677)"/>
<path d="M178.69 155.247C180.828 155.717 183.012 155.941 185.201 155.917C186.172 155.905 187.141 155.838 188.104 155.717C188.104 155.717 187.294 154.958 186.043 153.884C184.791 152.809 183.123 151.409 181.248 149.984C179.431 148.639 177.432 147.56 175.311 146.78C174.329 146.415 173.298 146.203 172.252 146.151C171.131 146.135 170.013 146.285 168.936 146.596C168.885 147.733 169.128 148.863 169.642 149.878C170.155 150.893 170.921 151.758 171.866 152.391C173.895 153.848 176.228 154.825 178.69 155.247Z" fill="url(#paint24_linear_1_677)"/>
<path d="M170.605 143.387C171.606 143.554 172.632 143.5 173.61 143.228C175.649 142.588 177.5 141.457 178.999 139.934C180.351 138.595 181.535 137.098 182.526 135.474C182.907 134.824 183.206 134.278 183.427 133.877C183.648 133.476 183.686 133.236 183.686 133.236C183.686 133.236 182.822 133.338 181.579 133.6C179.933 133.892 178.306 134.275 176.704 134.749C174.87 135.273 173.132 136.087 171.554 137.16C169.89 138.345 168.628 140.012 167.938 141.936C168.659 142.68 169.589 143.186 170.605 143.387Z" fill="url(#paint25_linear_1_677)"/>
<path d="M200.039 146.123C197.959 145.278 195.778 144.707 193.552 144.423C192.529 144.291 191.491 144.362 190.496 144.633C189.502 144.905 188.571 145.371 187.757 146.004C188.033 147.054 188.548 148.025 189.262 148.841C189.977 149.657 190.87 150.296 191.873 150.709C194.087 151.633 196.486 152.025 198.879 151.853C201.152 151.741 203.4 151.331 205.566 150.633C206.458 150.366 207.202 150.078 207.716 149.874C208.229 149.67 208.503 149.525 208.503 149.525L205.858 148.456C204.291 147.823 202.189 146.914 200.039 146.123Z" fill="url(#paint26_linear_1_677)"/>
<path d="M185.443 141.401C186.364 141.824 187.377 142.008 188.389 141.937C189.401 141.866 190.378 141.542 191.233 140.995C193.033 139.874 194.519 138.315 195.553 136.464C196.489 134.892 197.178 133.186 197.598 131.405C197.753 130.807 197.873 130.201 197.959 129.59C198.008 129.178 198.03 128.932 198.03 128.932L197.543 129.166C197.235 129.297 196.772 129.522 196.231 129.793C194.813 130.474 193.43 131.224 192.087 132.042C190.417 133.052 188.906 134.306 187.604 135.762C186.222 137.316 185.454 139.321 185.443 141.401Z" fill="url(#paint27_linear_1_677)"/>
<path d="M217.668 142.127L218.605 141.603L219.055 141.314L219.421 141.089C219.888 140.807 220.344 140.502 220.778 140.206C221.651 139.598 222.453 138.922 223.079 138.488C223.705 138.055 224.241 137.506 224.62 137.149C224.999 136.793 225.155 136.601 225.155 136.601L222.433 136.402C220.428 136.25 218.416 136.223 216.408 136.321C215.848 136.35 215.305 136.385 214.747 136.454C214.19 136.523 213.545 136.616 212.975 136.718C212.404 136.821 211.84 136.907 211.279 137.033C210.718 137.16 210.188 137.259 209.695 137.413C207.642 137.892 205.832 139.097 204.599 140.807C205.166 141.754 205.964 142.543 206.917 143.1C207.871 143.657 208.95 143.964 210.054 143.992C212.714 144.08 215.348 143.434 217.668 142.127Z" fill="url(#paint28_linear_1_677)"/>
<path d="M208.717 128.485C208.913 126.6 208.913 124.7 208.715 122.815C208.665 122.208 208.582 121.605 208.466 121.007C208.39 120.565 208.33 120.325 208.33 120.325C208.33 120.325 208.255 120.51 207.916 120.766C207.578 121.021 207.229 121.449 206.764 121.968C206.3 122.486 205.785 123.082 205.245 123.786C204.713 124.452 204.226 125.153 203.789 125.885C202.903 127.342 202.163 128.882 201.578 130.483C200.861 132.396 200.792 134.491 201.382 136.446C202.373 136.587 203.384 136.461 204.31 136.08C205.236 135.699 206.044 135.077 206.649 134.279C206.97 133.885 207.253 133.46 207.494 133.012C207.729 132.553 207.923 132.073 208.074 131.579C208.232 131.089 208.356 130.588 208.444 130.081C208.565 129.555 208.656 129.023 208.717 128.485Z" fill="url(#paint29_linear_1_677)"/>
<path d="M236.413 122.28C236.698 121.866 236.85 121.633 236.85 121.633L234.126 121.925C232.11 122.171 230.111 122.535 228.137 123.015C225.974 123.409 223.89 124.158 221.969 125.23C221.56 125.516 221.117 125.788 220.734 126.104C220.34 126.4 219.984 126.743 219.674 127.127C219.024 127.932 218.574 128.88 218.36 129.892C219.205 130.543 220.183 131.001 221.224 131.232C222.265 131.463 223.345 131.462 224.386 131.229C224.93 131.119 225.466 130.975 225.991 130.799C226.536 130.628 227.064 130.408 227.57 130.142C228.611 129.599 229.605 128.971 230.544 128.264C232.246 126.998 233.783 125.524 235.12 123.876C235.68 123.22 236.117 122.671 236.413 122.28Z" fill="url(#paint30_linear_1_677)"/>
<path d="M214.159 126.173C215.626 125.822 216.913 124.947 217.78 123.713C218.089 123.322 218.338 122.887 218.518 122.422C219.28 120.455 219.592 118.342 219.429 116.239C219.276 114.365 218.913 112.514 218.347 110.721C218.127 110.004 217.927 109.433 217.756 109.031C217.586 108.628 217.486 108.391 217.486 108.391C217.486 108.391 217.404 108.594 217.166 108.89C216.929 109.186 216.64 109.658 216.294 110.224C215.445 111.663 214.67 113.143 213.971 114.661C213.569 115.553 213.242 116.477 212.992 117.423L212.814 118.155L212.642 118.87C212.547 119.356 212.479 119.846 212.441 120.339C212.254 122.431 212.868 124.517 214.159 126.173Z" fill="url(#paint31_linear_1_677)"/>
<path d="M237.078 107.444L235.59 108.216L234.122 109.035C233.196 109.577 232.329 110.212 231.533 110.931C231.173 111.283 230.838 111.658 230.529 112.055C230.204 112.426 229.922 112.832 229.688 113.265C229.199 114.172 228.938 115.184 228.927 116.214C229.883 116.702 230.938 116.967 232.011 116.99C233.085 117.013 234.15 116.793 235.126 116.346C235.644 116.136 236.145 115.886 236.624 115.598C237.114 115.295 237.583 114.961 238.029 114.596C238.943 113.834 239.801 113.008 240.597 112.123C240.987 111.684 241.35 111.221 241.686 110.739C242.015 110.264 242.327 109.782 242.626 109.334C243.213 108.414 243.74 107.548 244.134 106.766C244.816 105.08 245.211 104.102 245.211 104.102C245.211 104.102 244.154 104.439 242.643 105.025C241.132 105.611 239.097 106.475 237.078 107.444Z" fill="url(#paint32_linear_1_677)"/>
<path d="M226.645 111.191C226.953 110.82 227.217 110.412 227.429 109.978C227.62 109.522 227.76 109.045 227.846 108.558C228.044 107.546 228.099 106.512 228.01 105.486L227.949 104.715L227.797 103.928C227.674 103.408 227.527 102.897 227.381 102.387C227.089 101.435 226.732 100.504 226.312 99.6008C226.103 99.2064 225.871 98.8245 225.617 98.457L224.98 97.4148C224.55 96.6807 224.077 95.9721 223.564 95.2928C223.306 95.97 223.092 96.6629 222.922 97.3674C222.806 97.654 222.676 97.9744 222.533 98.3285C222.39 98.6826 222.254 99.0198 222.205 99.4316C221.898 100.19 221.841 101.109 221.651 102.013C221.44 102.937 221.316 103.878 221.279 104.825C221.258 105.317 221.262 105.809 221.291 106.3C221.292 106.778 221.321 107.255 221.379 107.729C221.658 109.78 222.677 111.657 224.245 113.007C225.181 112.607 226.005 111.983 226.645 111.191Z" fill="url(#paint33_linear_1_677)"/>
<path d="M237.615 95.0093C237.009 95.7974 236.57 96.7016 236.326 97.6659C236.21 98.1493 236.148 98.644 236.141 99.141C236.111 99.6629 236.149 100.187 236.257 100.698C237.313 100.968 238.417 100.987 239.482 100.753C240.546 100.519 241.542 100.039 242.388 99.3511C243.294 98.6515 244.109 97.8408 244.814 96.938C245.508 95.9682 246.125 94.945 246.658 93.878C246.883 93.3216 247.108 92.7652 247.34 92.1919C247.572 91.6186 247.769 91.1296 247.974 90.6237C248.383 89.6121 248.562 88.5861 248.764 87.7459C249.078 86.0484 249.201 84.9209 249.201 84.9209C249.201 84.9209 248.277 85.5088 246.943 86.4802C246.297 86.9643 245.535 87.5392 244.679 88.1543C243.823 88.7694 242.987 89.4318 242.126 90.2022C241.266 90.9726 240.433 91.6756 239.647 92.4564C238.883 93.2341 238.202 94.0897 237.615 95.0093Z" fill="url(#paint34_linear_1_677)"/>
<path d="M233.664 93.098C233.593 92.0784 233.378 91.0739 233.028 90.1141C232.851 89.6306 232.657 89.1403 232.432 88.6769C232.208 88.2136 231.926 87.7466 231.655 87.3033C230.674 85.7426 229.489 84.3201 228.131 83.0737C227.532 82.5128 226.899 81.9886 226.237 81.5039C226.158 82.1842 226.117 82.8684 226.114 83.5532C226.075 84.1846 226.018 84.907 226.025 85.7141C226.023 86.1058 226.049 86.528 226.067 86.9671C226.086 87.4061 226.087 87.8384 226.123 88.2842C226.195 89.1932 226.335 90.0956 226.541 90.9838C226.715 91.9275 227.001 92.8468 227.394 93.7219C228.178 95.6491 229.622 97.234 231.467 98.1931C231.888 97.9005 232.266 97.5519 232.592 97.1568C232.903 96.7818 233.147 96.3567 233.316 95.8997C233.614 94.9974 233.732 94.0456 233.664 93.098Z" fill="url(#paint35_linear_1_677)"/>
<path d="M248.111 65.7467C248.111 65.7467 247.382 66.5311 246.308 67.7837C245.233 69.0363 243.883 70.7269 242.55 72.5223C241.888 73.4318 241.31 74.3754 240.75 75.3258C240.187 76.2246 239.733 77.1865 239.395 78.1916C239.246 78.6645 239.123 79.1455 239.029 79.6323C238.926 80.1103 238.88 80.5986 238.891 81.0873C238.901 81.5758 238.975 82.0609 239.112 82.53C239.221 83.0402 239.389 83.5359 239.612 84.0074C240.688 84.005 241.749 83.7641 242.72 83.3019C243.651 82.793 244.463 82.0911 245.101 81.2433C245.45 80.8058 245.767 80.3442 246.051 79.862C246.355 79.3694 246.612 78.849 246.817 78.3078C247.255 77.2094 247.602 76.0765 247.853 74.9209C248.256 72.8454 248.413 70.7299 248.323 68.6178C248.289 67.7802 248.241 67.0743 248.195 66.6047L248.111 65.7467Z" fill="url(#paint36_linear_1_677)"/>
<path d="M235.666 78.2533C235.628 77.7721 235.53 77.2975 235.374 76.8408C235.066 75.8849 234.629 74.9757 234.075 74.1383C233.472 73.2878 232.786 72.4983 232.029 71.7812C231.642 71.4287 231.272 71.083 230.889 70.771C230.505 70.459 230.091 70.174 229.711 69.9026C229.015 69.4158 228.294 68.967 227.549 68.5581C226.91 68.2013 226.374 67.926 225.926 67.7253L225.286 67.4665L225.371 68.0307C225.434 68.4091 225.506 68.9091 225.629 69.5275L225.847 70.5379L226.004 71.072L226.123 71.6498C226.328 72.4922 226.581 73.3218 226.883 74.1344C227.158 75.0156 227.507 75.8719 227.926 76.6942L228.261 77.3201L228.603 77.929C228.847 78.3337 229.115 78.7236 229.405 79.0968C230.015 79.8632 230.733 80.5367 231.537 81.0963C232.425 81.6835 233.422 82.0865 234.469 82.2813C234.801 81.8895 235.077 81.4528 235.287 80.984C235.468 80.5468 235.587 80.0871 235.644 79.6175C235.704 79.1652 235.712 78.7074 235.666 78.2533Z" fill="url(#paint37_linear_1_677)"/>
<path d="M238.615 67.1265C239.639 66.8473 240.589 66.3431 241.394 65.6507C242.2 64.9582 242.841 64.095 243.271 63.1236C243.732 62.1048 244.061 61.0312 244.249 59.929C244.417 58.7777 244.494 57.6149 244.478 56.4516C244.462 55.2984 244.371 54.1475 244.205 53.0062C244.063 52.0594 243.866 51.1217 243.615 50.198C243.412 49.3903 243.189 48.731 243.039 48.278L242.818 47.6593C242.818 47.6593 242.248 48.586 241.496 50.0085C241.19 50.7673 240.646 51.6266 240.218 52.493C240.027 52.9651 239.836 53.4373 239.53 53.9022C239.225 54.3672 239.121 54.9139 238.91 55.4366C238.012 57.3987 237.414 59.4844 237.134 61.6239C237.009 62.5906 237.078 63.5727 237.339 64.5118C237.552 65.4722 237.989 66.3682 238.615 67.1265Z" fill="url(#paint38_linear_1_677)"/>
<path d="M233.034 60.7118C231.912 58.9682 230.384 57.5228 228.582 56.4993C227.723 55.9922 226.829 55.5457 225.907 55.1632C225.031 54.8091 224.222 54.4822 223.508 54.3109C222.716 54.0713 221.911 53.8769 221.097 53.7287L221.311 54.2664L221.902 55.761C222.153 56.3528 222.508 57.0259 222.86 57.7565C223.211 58.4871 223.664 59.2586 224.15 60.0436C224.638 60.8487 225.186 61.6148 225.792 62.3353C226.391 63.0797 227.071 63.7558 227.819 64.3514C229.394 65.6609 231.39 66.3561 233.438 66.3086C233.854 65.4116 234.031 64.4222 233.952 63.4366C233.839 62.4742 233.527 61.546 233.034 60.7118Z" fill="url(#paint39_linear_1_677)"/>
</g>
<rect y="44.55" width="309.375" height="120.45" fill="url(#paint40_linear_1_677)"/>
<path d="M135.38 104H129.216L130.786 95.8672H125.677L126.802 89.9375H131.934L133.13 83.7734H127.88L129.005 77.8906H134.278L135.778 70.1797H141.942L140.442 77.8906H145.716L147.216 70.1797H153.403L151.903 77.8906H157.224L156.122 83.7734H150.778L149.583 89.9375H155.02L153.895 95.8672H148.434L146.841 104H140.653L142.224 95.8672H136.95L135.38 104ZM137.63 90.3125H143.677L145.036 83.3984H138.989L137.63 90.3125ZM171.07 104V77.7266H170.906L162.445 83.3984V76.0391L171.047 70.1797H179.625V104H171.07Z" fill="url(#paint41_linear_1_677)"/>
<path fill-rule="evenodd" clip-rule="evenodd" d="M154.222 12.0004L157.917 19.0074L165.715 20.3533L160.203 26.0358L161.336 33.8759L154.222 30.3724L147.108 33.8759L148.24 26.0358L142.729 20.3533L150.526 19.0074L154.222 12.0004Z" fill="url(#paint42_linear_1_677)"/>
<path fill-rule="evenodd" clip-rule="evenodd" d="M128.351 18.6871L132.667 23.3442L138.969 22.7674L135.892 28.3004L138.37 34.111L132.175 32.8933L127.39 37.0591L126.642 30.7784L121.216 27.5313L126.963 24.8609L128.351 18.6871Z" fill="url(#paint43_linear_1_677)"/>
<path fill-rule="evenodd" clip-rule="evenodd" d="M109.531 30.3723L114.06 33.2349L119.101 31.3763L117.798 36.5888L121.109 40.7973L115.747 41.1604L112.757 45.6253L110.77 40.6477L105.6 39.1737L109.723 35.7343L109.531 30.3723Z" fill="url(#paint44_linear_1_677)"/>
<path fill-rule="evenodd" clip-rule="evenodd" d="M180.199 18.6871L175.884 23.3442L169.582 22.7674L172.679 28.3004L170.18 34.111L176.396 32.8933L181.16 37.0591L181.929 30.7784L187.355 27.5313L181.609 24.8609L180.199 18.6871Z" fill="url(#paint45_linear_1_677)"/>
<path fill-rule="evenodd" clip-rule="evenodd" d="M199.041 30.3723L194.49 33.2349L189.449 31.3763L190.773 36.5888L187.462 40.7973L192.803 41.1604L195.794 45.6253L197.802 40.6477L202.95 39.1737L198.827 35.7343L199.041 30.3723Z" fill="url(#paint46_linear_1_677)"/>
</g>
<path d="M89.4151 143.188C89.2958 142.773 89.1282 142.406 88.9123 142.088C88.6964 141.764 88.4322 141.491 88.1197 141.27C87.8129 141.043 87.4606 140.869 87.0629 140.75C86.6708 140.631 86.2362 140.571 85.7589 140.571C84.8668 140.571 84.0827 140.793 83.4066 141.236C82.7362 141.679 82.2134 142.324 81.8384 143.17C81.4634 144.011 81.2759 145.04 81.2759 146.256C81.2759 147.472 81.4606 148.506 81.8299 149.358C82.1992 150.21 82.7219 150.861 83.3981 151.31C84.0742 151.753 84.8725 151.974 85.793 151.974C86.6282 151.974 87.3413 151.827 87.9322 151.531C88.5288 151.23 88.9833 150.807 89.2958 150.261C89.614 149.716 89.7731 149.071 89.7731 148.327L90.5231 148.438H86.0231V145.659H93.3271V147.858C93.3271 149.392 93.0032 150.71 92.3555 151.812C91.7077 152.909 90.8157 153.756 89.6793 154.352C88.543 154.943 87.2418 155.239 85.7759 155.239C84.1396 155.239 82.7021 154.878 81.4634 154.156C80.2248 153.429 79.2589 152.398 78.5657 151.062C77.8782 149.722 77.5344 148.131 77.5344 146.29C77.5344 144.875 77.739 143.614 78.1481 142.506C78.5629 141.392 79.1424 140.449 79.8867 139.676C80.631 138.903 81.4975 138.315 82.4862 137.912C83.4748 137.509 84.5458 137.307 85.6992 137.307C86.6879 137.307 87.6083 137.452 88.4606 137.741C89.3129 138.026 90.0685 138.429 90.7276 138.952C91.3924 139.474 91.935 140.097 92.3555 140.818C92.7759 141.534 93.0458 142.324 93.1651 143.188H89.4151ZM112.139 146.273C112.139 148.176 111.778 149.795 111.056 151.131C110.341 152.466 109.363 153.486 108.125 154.19C106.892 154.889 105.505 155.239 103.966 155.239C102.414 155.239 101.022 154.886 99.7894 154.182C98.5565 153.477 97.582 152.457 96.8661 151.122C96.1502 149.787 95.7923 148.17 95.7923 146.273C95.7923 144.369 96.1502 142.75 96.8661 141.415C97.582 140.08 98.5565 139.062 99.7894 138.364C101.022 137.659 102.414 137.307 103.966 137.307C105.505 137.307 106.892 137.659 108.125 138.364C109.363 139.062 110.341 140.08 111.056 141.415C111.778 142.75 112.139 144.369 112.139 146.273ZM108.397 146.273C108.397 145.04 108.213 144 107.843 143.153C107.48 142.307 106.966 141.665 106.301 141.227C105.636 140.79 104.858 140.571 103.966 140.571C103.074 140.571 102.295 140.79 101.63 141.227C100.966 141.665 100.449 142.307 100.079 143.153C99.7156 144 99.5337 145.04 99.5337 146.273C99.5337 147.506 99.7156 148.545 100.079 149.392C100.449 150.239 100.966 150.881 101.63 151.318C102.295 151.756 103.074 151.974 103.966 151.974C104.858 151.974 105.636 151.756 106.301 151.318C106.966 150.881 107.48 150.239 107.843 149.392C108.213 148.545 108.397 147.506 108.397 146.273ZM120.427 155V137.545H127.314C128.637 137.545 129.765 137.798 130.697 138.304C131.629 138.804 132.339 139.5 132.828 140.392C133.322 141.278 133.569 142.301 133.569 143.46C133.569 144.619 133.319 145.642 132.819 146.528C132.319 147.415 131.595 148.105 130.646 148.599C129.703 149.094 128.561 149.341 127.22 149.341H122.831V146.384H126.623C127.333 146.384 127.919 146.261 128.379 146.017C128.845 145.767 129.191 145.423 129.419 144.986C129.652 144.543 129.768 144.034 129.768 143.46C129.768 142.881 129.652 142.375 129.419 141.943C129.191 141.506 128.845 141.168 128.379 140.929C127.913 140.685 127.322 140.562 126.606 140.562H124.118V155H120.427ZM135.966 155V137.545H142.853C144.171 137.545 145.296 137.781 146.228 138.253C147.165 138.719 147.878 139.381 148.367 140.239C148.861 141.091 149.108 142.094 149.108 143.247C149.108 144.406 148.858 145.403 148.358 146.239C147.858 147.068 147.134 147.705 146.185 148.148C145.242 148.591 144.1 148.812 142.759 148.812H138.148V145.847H142.162C142.867 145.847 143.452 145.75 143.918 145.557C144.384 145.364 144.73 145.074 144.958 144.688C145.191 144.301 145.307 143.821 145.307 143.247C145.307 142.668 145.191 142.179 144.958 141.781C144.73 141.384 144.381 141.082 143.909 140.878C143.444 140.668 142.855 140.562 142.145 140.562H139.657V155H135.966ZM145.392 147.057L149.73 155H145.657L141.412 147.057H145.392ZM151.716 155V137.545H163.478V140.588H155.407V144.747H162.873V147.79H155.407V151.957H163.512V155H151.716ZM166.412 137.545H170.963L175.77 149.273H175.974L180.781 137.545H185.332V155H181.752V143.639H181.608L177.091 154.915H174.653L170.136 143.597H169.991V155H166.412V137.545ZM192.063 137.545V155H188.373V137.545H192.063ZM205.88 137.545H209.571V148.881C209.571 150.153 209.267 151.267 208.659 152.222C208.056 153.176 207.213 153.92 206.127 154.455C205.042 154.983 203.778 155.247 202.335 155.247C200.886 155.247 199.619 154.983 198.534 154.455C197.449 153.92 196.605 153.176 196.002 152.222C195.4 151.267 195.099 150.153 195.099 148.881V137.545H198.789V148.565C198.789 149.23 198.934 149.821 199.224 150.338C199.52 150.855 199.934 151.261 200.468 151.557C201.002 151.852 201.625 152 202.335 152C203.051 152 203.673 151.852 204.201 151.557C204.735 151.261 205.147 150.855 205.437 150.338C205.733 149.821 205.88 149.23 205.88 148.565V137.545ZM212.607 137.545H217.158L221.965 149.273H222.169L226.976 137.545H231.527V155H227.948V143.639H227.803L223.286 154.915H220.848L216.331 143.597H216.186V155H212.607V137.545Z" fill="url(#paint47_linear_1_677)"/>
<defs>
<linearGradient id="paint0_linear_1_677" x1="126.427" y1="157.131" x2="125.767" y2="142.903" gradientUnits="userSpaceOnUse">
<stop stop-color="#CFA547"/>
<stop offset="0.03" stop-color="#D1A84B"/>
<stop offset="0.06" stop-color="#D7B157"/>
<stop offset="0.08" stop-color="#E1C06B"/>
<stop offset="0.11" stop-color="#EED586"/>
<stop offset="0.2" stop-color="#EAD084"/>
<stop offset="0.43" stop-color="#E2C77F"/>
<stop offset="0.45" stop-color="#E7CF8C"/>
<stop offset="0.52" stop-color="#F7EDB7"/>
<stop offset="0.55" stop-color="#FDF8C8"/>
<stop offset="0.59" stop-color="#FDF8C8"/>
<stop offset="0.74" stop-color="#DFC77F"/>
<stop offset="0.89" stop-color="#DDB854"/>
<stop offset="0.91" stop-color="#D9B350"/>
<stop offset="0.94" stop-color="#CEA546"/>
<stop offset="0.98" stop-color="#BB8F34"/>
<stop offset="0.99" stop-color="#AE7F28"/>
</linearGradient>
<linearGradient id="paint1_linear_1_677" x1="133.662" y1="146.291" x2="143.425" y2="130.481" gradientUnits="userSpaceOnUse">
<stop stop-color="#CFA547"/>
<stop offset="0.03" stop-color="#D1A84B"/>
<stop offset="0.06" stop-color="#D7B157"/>
<stop offset="0.08" stop-color="#E1C06B"/>
<stop offset="0.11" stop-color="#EED586"/>
<stop offset="0.2" stop-color="#EAD084"/>
<stop offset="0.43" stop-color="#E2C77F"/>
<stop offset="0.45" stop-color="#E7CF8C"/>
<stop offset="0.52" stop-color="#F7EDB7"/>
<stop offset="0.55" stop-color="#FDF8C8"/>
<stop offset="0.59" stop-color="#FDF8C8"/>
<stop offset="0.74" stop-color="#DFC77F"/>
<stop offset="0.89" stop-color="#DDB854"/>
<stop offset="0.91" stop-color="#D9B350"/>
<stop offset="0.94" stop-color="#CEA546"/>
<stop offset="0.98" stop-color="#BB8F34"/>
<stop offset="0.99" stop-color="#AE7F28"/>
</linearGradient>
<linearGradient id="paint2_linear_1_677" x1="107.425" y1="154.687" x2="107.086" y2="139.934" gradientUnits="userSpaceOnUse">
<stop stop-color="#CFA547"/>
<stop offset="0.03" stop-color="#D1A84B"/>
<stop offset="0.06" stop-color="#D7B157"/>
<stop offset="0.08" stop-color="#E1C06B"/>
<stop offset="0.11" stop-color="#EED586"/>
<stop offset="0.2" stop-color="#EAD084"/>
<stop offset="0.43" stop-color="#E2C77F"/>
<stop offset="0.45" stop-color="#E7CF8C"/>
<stop offset="0.52" stop-color="#F7EDB7"/>
<stop offset="0.55" stop-color="#FDF8C8"/>
<stop offset="0.59" stop-color="#FDF8C8"/>
<stop offset="0.74" stop-color="#DFC77F"/>
<stop offset="0.89" stop-color="#DDB854"/>
<stop offset="0.91" stop-color="#D9B350"/>
<stop offset="0.94" stop-color="#CEA546"/>
<stop offset="0.98" stop-color="#BB8F34"/>
<stop offset="0.99" stop-color="#AE7F28"/>
</linearGradient>
<linearGradient id="paint3_linear_1_677" x1="118.908" y1="144.256" x2="129.178" y2="132.982" gradientUnits="userSpaceOnUse">
<stop stop-color="#CFA547"/>
<stop offset="0.03" stop-color="#D1A84B"/>
<stop offset="0.06" stop-color="#D7B157"/>
<stop offset="0.08" stop-color="#E1C06B"/>
<stop offset="0.11" stop-color="#EED586"/>
<stop offset="0.2" stop-color="#EAD084"/>
<stop offset="0.43" stop-color="#E2C77F"/>
<stop offset="0.45" stop-color="#E7CF8C"/>
<stop offset="0.52" stop-color="#F7EDB7"/>
<stop offset="0.55" stop-color="#FDF8C8"/>
<stop offset="0.59" stop-color="#FDF8C8"/>
<stop offset="0.74" stop-color="#DFC77F"/>
<stop offset="0.89" stop-color="#DDB854"/>
<stop offset="0.91" stop-color="#D9B350"/>
<stop offset="0.94" stop-color="#CEA546"/>
<stop offset="0.98" stop-color="#BB8F34"/>
<stop offset="0.99" stop-color="#AE7F28"/>
</linearGradient>
<linearGradient id="paint4_linear_1_677" x1="92.5733" y1="147.71" x2="98.7016" y2="126.612" gradientUnits="userSpaceOnUse">
<stop stop-color="#CFA547"/>
<stop offset="0.03" stop-color="#D1A84B"/>
<stop offset="0.06" stop-color="#D7B157"/>
<stop offset="0.08" stop-color="#E1C06B"/>
<stop offset="0.11" stop-color="#EED586"/>
<stop offset="0.2" stop-color="#EAD084"/>
<stop offset="0.43" stop-color="#E2C77F"/>
<stop offset="0.45" stop-color="#E7CF8C"/>
<stop offset="0.52" stop-color="#F7EDB7"/>
<stop offset="0.55" stop-color="#FDF8C8"/>
<stop offset="0.59" stop-color="#FDF8C8"/>
<stop offset="0.74" stop-color="#DFC77F"/>
<stop offset="0.89" stop-color="#DDB854"/>
<stop offset="0.91" stop-color="#D9B350"/>
<stop offset="0.94" stop-color="#CEA546"/>
<stop offset="0.98" stop-color="#BB8F34"/>
<stop offset="0.99" stop-color="#AE7F28"/>
</linearGradient>
<linearGradient id="paint5_linear_1_677" x1="105.666" y1="138.34" x2="115.077" y2="130.1" gradientUnits="userSpaceOnUse">
<stop stop-color="#CFA547"/>
<stop offset="0.03" stop-color="#D1A84B"/>
<stop offset="0.06" stop-color="#D7B157"/>
<stop offset="0.08" stop-color="#E1C06B"/>
<stop offset="0.11" stop-color="#EED586"/>
<stop offset="0.2" stop-color="#EAD084"/>
<stop offset="0.43" stop-color="#E2C77F"/>
<stop offset="0.45" stop-color="#E7CF8C"/>
<stop offset="0.52" stop-color="#F7EDB7"/>
<stop offset="0.55" stop-color="#FDF8C8"/>
<stop offset="0.59" stop-color="#FDF8C8"/>
<stop offset="0.74" stop-color="#DFC77F"/>
<stop offset="0.89" stop-color="#DDB854"/>
<stop offset="0.91" stop-color="#D9B350"/>
<stop offset="0.94" stop-color="#CEA546"/>
<stop offset="0.98" stop-color="#BB8F34"/>
<stop offset="0.99" stop-color="#AE7F28"/>
</linearGradient>
<linearGradient id="paint6_linear_1_677" x1="81.0649" y1="134.826" x2="90.5176" y2="115.597" gradientUnits="userSpaceOnUse">
<stop stop-color="#CFA547"/>
<stop offset="0.03" stop-color="#D1A84B"/>
<stop offset="0.06" stop-color="#D7B157"/>
<stop offset="0.08" stop-color="#E1C06B"/>
<stop offset="0.11" stop-color="#EED586"/>
<stop offset="0.2" stop-color="#EAD084"/>
<stop offset="0.43" stop-color="#E2C77F"/>
<stop offset="0.45" stop-color="#E7CF8C"/>
<stop offset="0.52" stop-color="#F7EDB7"/>
<stop offset="0.55" stop-color="#FDF8C8"/>
<stop offset="0.59" stop-color="#FDF8C8"/>
<stop offset="0.74" stop-color="#DFC77F"/>
<stop offset="0.89" stop-color="#DDB854"/>
<stop offset="0.91" stop-color="#D9B350"/>
<stop offset="0.94" stop-color="#CEA546"/>
<stop offset="0.98" stop-color="#BB8F34"/>
<stop offset="0.99" stop-color="#AE7F28"/>
</linearGradient>
<linearGradient id="paint7_linear_1_677" x1="94.6743" y1="127.342" x2="104.646" y2="118.141" gradientUnits="userSpaceOnUse">
<stop stop-color="#CFA547"/>
<stop offset="0.03" stop-color="#D1A84B"/>
<stop offset="0.06" stop-color="#D7B157"/>
<stop offset="0.08" stop-color="#E1C06B"/>
<stop offset="0.11" stop-color="#EED586"/>
<stop offset="0.2" stop-color="#EAD084"/>
<stop offset="0.43" stop-color="#E2C77F"/>
<stop offset="0.45" stop-color="#E7CF8C"/>
<stop offset="0.52" stop-color="#F7EDB7"/>
<stop offset="0.55" stop-color="#FDF8C8"/>
<stop offset="0.59" stop-color="#FDF8C8"/>
<stop offset="0.74" stop-color="#DFC77F"/>
<stop offset="0.89" stop-color="#DDB854"/>
<stop offset="0.91" stop-color="#D9B350"/>
<stop offset="0.94" stop-color="#CEA546"/>
<stop offset="0.98" stop-color="#BB8F34"/>
<stop offset="0.99" stop-color="#AE7F28"/>
</linearGradient>
<linearGradient id="paint8_linear_1_677" x1="73.1603" y1="120.115" x2="84.8" y2="104.719" gradientUnits="userSpaceOnUse">
<stop stop-color="#CFA547"/>
<stop offset="0.03" stop-color="#D1A84B"/>
<stop offset="0.06" stop-color="#D7B157"/>
<stop offset="0.08" stop-color="#E1C06B"/>
<stop offset="0.11" stop-color="#EED586"/>
<stop offset="0.2" stop-color="#EAD084"/>
<stop offset="0.43" stop-color="#E2C77F"/>
<stop offset="0.45" stop-color="#E7CF8C"/>
<stop offset="0.52" stop-color="#F7EDB7"/>
<stop offset="0.55" stop-color="#FDF8C8"/>
<stop offset="0.59" stop-color="#FDF8C8"/>
<stop offset="0.74" stop-color="#DFC77F"/>
<stop offset="0.89" stop-color="#DDB854"/>
<stop offset="0.91" stop-color="#D9B350"/>
<stop offset="0.94" stop-color="#CEA546"/>
<stop offset="0.98" stop-color="#BB8F34"/>
<stop offset="0.99" stop-color="#AE7F28"/>
</linearGradient>
<linearGradient id="paint9_linear_1_677" x1="85.6282" y1="113.598" x2="96.1167" y2="101.378" gradientUnits="userSpaceOnUse">
<stop stop-color="#CFA547"/>
<stop offset="0.03" stop-color="#D1A84B"/>
<stop offset="0.06" stop-color="#D7B157"/>
<stop offset="0.08" stop-color="#E1C06B"/>
<stop offset="0.11" stop-color="#EED586"/>
<stop offset="0.2" stop-color="#EAD084"/>
<stop offset="0.43" stop-color="#E2C77F"/>
<stop offset="0.45" stop-color="#E7CF8C"/>
<stop offset="0.52" stop-color="#F7EDB7"/>
<stop offset="0.55" stop-color="#FDF8C8"/>
<stop offset="0.59" stop-color="#FDF8C8"/>
<stop offset="0.74" stop-color="#DFC77F"/>
<stop offset="0.89" stop-color="#DDB854"/>
<stop offset="0.91" stop-color="#D9B350"/>
<stop offset="0.94" stop-color="#CEA546"/>
<stop offset="0.98" stop-color="#BB8F34"/>
<stop offset="0.99" stop-color="#AE7F28"/>
</linearGradient>
<linearGradient id="paint10_linear_1_677" x1="68.7897" y1="103.631" x2="79.9905" y2="92.9892" gradientUnits="userSpaceOnUse">
<stop stop-color="#CFA547"/>
<stop offset="0.03" stop-color="#D1A84B"/>
<stop offset="0.06" stop-color="#D7B157"/>
<stop offset="0.08" stop-color="#E1C06B"/>
<stop offset="0.11" stop-color="#EED586"/>
<stop offset="0.2" stop-color="#EAD084"/>
<stop offset="0.43" stop-color="#E2C77F"/>
<stop offset="0.45" stop-color="#E7CF8C"/>
<stop offset="0.52" stop-color="#F7EDB7"/>
<stop offset="0.55" stop-color="#FDF8C8"/>
<stop offset="0.59" stop-color="#FDF8C8"/>
<stop offset="0.74" stop-color="#DFC77F"/>
<stop offset="0.89" stop-color="#DDB854"/>
<stop offset="0.91" stop-color="#D9B350"/>
<stop offset="0.94" stop-color="#CEA546"/>
<stop offset="0.98" stop-color="#BB8F34"/>
<stop offset="0.99" stop-color="#AE7F28"/>
</linearGradient>
<linearGradient id="paint11_linear_1_677" x1="79.7887" y1="98.0183" x2="88.7519" y2="81.7823" gradientUnits="userSpaceOnUse">
<stop stop-color="#CFA547"/>
<stop offset="0.03" stop-color="#D1A84B"/>
<stop offset="0.06" stop-color="#D7B157"/>
<stop offset="0.08" stop-color="#E1C06B"/>
<stop offset="0.11" stop-color="#EED586"/>
<stop offset="0.2" stop-color="#EAD084"/>
<stop offset="0.43" stop-color="#E2C77F"/>
<stop offset="0.45" stop-color="#E7CF8C"/>
<stop offset="0.52" stop-color="#F7EDB7"/>
<stop offset="0.55" stop-color="#FDF8C8"/>
<stop offset="0.59" stop-color="#FDF8C8"/>
<stop offset="0.74" stop-color="#DFC77F"/>
<stop offset="0.89" stop-color="#DDB854"/>
<stop offset="0.91" stop-color="#D9B350"/>
<stop offset="0.94" stop-color="#CEA546"/>
<stop offset="0.98" stop-color="#BB8F34"/>
<stop offset="0.99" stop-color="#AE7F28"/>
</linearGradient>
<linearGradient id="paint12_linear_1_677" x1="67.4588" y1="86.0032" x2="77.7357" y2="77.3611" gradientUnits="userSpaceOnUse">
<stop stop-color="#CFA547"/>
<stop offset="0.03" stop-color="#D1A84B"/>
<stop offset="0.06" stop-color="#D7B157"/>
<stop offset="0.08" stop-color="#E1C06B"/>
<stop offset="0.11" stop-color="#EED586"/>
<stop offset="0.2" stop-color="#EAD084"/>
<stop offset="0.43" stop-color="#E2C77F"/>
<stop offset="0.45" stop-color="#E7CF8C"/>
<stop offset="0.52" stop-color="#F7EDB7"/>
<stop offset="0.55" stop-color="#FDF8C8"/>
<stop offset="0.59" stop-color="#FDF8C8"/>
<stop offset="0.74" stop-color="#DFC77F"/>
<stop offset="0.89" stop-color="#DDB854"/>
<stop offset="0.91" stop-color="#D9B350"/>
<stop offset="0.94" stop-color="#CEA546"/>
<stop offset="0.98" stop-color="#BB8F34"/>
<stop offset="0.99" stop-color="#AE7F28"/>
</linearGradient>
<linearGradient id="paint13_linear_1_677" x1="77.5526" y1="81.6475" x2="82.4696" y2="64.3706" gradientUnits="userSpaceOnUse">
<stop stop-color="#CFA547"/>
<stop offset="0.03" stop-color="#D1A84B"/>
<stop offset="0.06" stop-color="#D7B157"/>
<stop offset="0.08" stop-color="#E1C06B"/>
<stop offset="0.11" stop-color="#EED586"/>
<stop offset="0.2" stop-color="#EAD084"/>
<stop offset="0.43" stop-color="#E2C77F"/>
<stop offset="0.45" stop-color="#E7CF8C"/>
<stop offset="0.52" stop-color="#F7EDB7"/>
<stop offset="0.55" stop-color="#FDF8C8"/>
<stop offset="0.59" stop-color="#FDF8C8"/>
<stop offset="0.74" stop-color="#DFC77F"/>
<stop offset="0.89" stop-color="#DDB854"/>
<stop offset="0.91" stop-color="#D9B350"/>
<stop offset="0.94" stop-color="#CEA546"/>
<stop offset="0.98" stop-color="#BB8F34"/>
<stop offset="0.99" stop-color="#AE7F28"/>
</linearGradient>
<linearGradient id="paint14_linear_1_677" x1="70.0878" y1="68.5358" x2="80.3603" y2="59.7207" gradientUnits="userSpaceOnUse">
<stop stop-color="#CFA547"/>
<stop offset="0.03" stop-color="#D1A84B"/>
<stop offset="0.06" stop-color="#D7B157"/>
<stop offset="0.08" stop-color="#E1C06B"/>
<stop offset="0.11" stop-color="#EED586"/>
<stop offset="0.2" stop-color="#EAD084"/>
<stop offset="0.43" stop-color="#E2C77F"/>
<stop offset="0.45" stop-color="#E7CF8C"/>
<stop offset="0.52" stop-color="#F7EDB7"/>
<stop offset="0.55" stop-color="#FDF8C8"/>
<stop offset="0.59" stop-color="#FDF8C8"/>
<stop offset="0.74" stop-color="#DFC77F"/>
<stop offset="0.89" stop-color="#DDB854"/>
<stop offset="0.91" stop-color="#D9B350"/>
<stop offset="0.94" stop-color="#CEA546"/>
<stop offset="0.98" stop-color="#BB8F34"/>
<stop offset="0.99" stop-color="#AE7F28"/>
</linearGradient>
<linearGradient id="paint15_linear_1_677" x1="79.312" y1="65.6437" x2="80.9977" y2="50.2405" gradientUnits="userSpaceOnUse">
<stop stop-color="#CFA547"/>
<stop offset="0.03" stop-color="#D1A84B"/>
<stop offset="0.06" stop-color="#D7B157"/>
<stop offset="0.08" stop-color="#E1C06B"/>
<stop offset="0.11" stop-color="#EED586"/>
<stop offset="0.2" stop-color="#EAD084"/>
<stop offset="0.43" stop-color="#E2C77F"/>
<stop offset="0.45" stop-color="#E7CF8C"/>
<stop offset="0.52" stop-color="#F7EDB7"/>
<stop offset="0.55" stop-color="#FDF8C8"/>
<stop offset="0.59" stop-color="#FDF8C8"/>
<stop offset="0.74" stop-color="#DFC77F"/>
<stop offset="0.89" stop-color="#DDB854"/>
<stop offset="0.91" stop-color="#D9B350"/>
<stop offset="0.94" stop-color="#CEA546"/>
<stop offset="0.98" stop-color="#BB8F34"/>
<stop offset="0.99" stop-color="#AE7F28"/>
</linearGradient>
<linearGradient id="paint16_linear_1_677" x1="132.909" y1="180.248" x2="222.288" y2="2.74356" gradientUnits="userSpaceOnUse">
<stop stop-color="#CFA547"/>
<stop offset="0.03" stop-color="#D1A84B"/>
<stop offset="0.06" stop-color="#D7B157"/>
<stop offset="0.08" stop-color="#E1C06B"/>
<stop offset="0.11" stop-color="#EED586"/>
<stop offset="0.2" stop-color="#EAD084"/>
<stop offset="0.43" stop-color="#E2C77F"/>
<stop offset="0.45" stop-color="#E7CF8C"/>
<stop offset="0.52" stop-color="#F7EDB7"/>
<stop offset="0.55" stop-color="#FDF8C8"/>
<stop offset="0.59" stop-color="#FDF8C8"/>
<stop offset="0.74" stop-color="#DFC77F"/>
<stop offset="0.89" stop-color="#DDB854"/>
<stop offset="0.91" stop-color="#D9B350"/>
<stop offset="0.94" stop-color="#CEA546"/>
<stop offset="0.98" stop-color="#BB8F34"/>
<stop offset="0.99" stop-color="#AE7F28"/>
</linearGradient>
<linearGradient id="paint17_linear_1_677" x1="172.791" y1="44.2719" x2="177.681" y2="27.0665" gradientUnits="userSpaceOnUse">
<stop stop-color="#CFA547"/>
<stop offset="0.03" stop-color="#D1A84B"/>
<stop offset="0.06" stop-color="#D7B157"/>
<stop offset="0.08" stop-color="#E1C06B"/>
<stop offset="0.11" stop-color="#EED586"/>
<stop offset="0.2" stop-color="#EAD084"/>
<stop offset="0.43" stop-color="#E2C77F"/>
<stop offset="0.45" stop-color="#E7CF8C"/>
<stop offset="0.52" stop-color="#F7EDB7"/>
<stop offset="0.55" stop-color="#FDF8C8"/>
<stop offset="0.59" stop-color="#FDF8C8"/>
<stop offset="0.74" stop-color="#DFC77F"/>
<stop offset="0.89" stop-color="#DDB854"/>
<stop offset="0.91" stop-color="#D9B350"/>
<stop offset="0.94" stop-color="#CEA546"/>
<stop offset="0.98" stop-color="#BB8F34"/>
<stop offset="0.99" stop-color="#AE7F28"/>
</linearGradient>
<linearGradient id="paint18_linear_1_677" x1="173.452" y1="27.939" x2="183.694" y2="19.2055" gradientUnits="userSpaceOnUse">
<stop stop-color="#CFA547"/>
<stop offset="0.03" stop-color="#D1A84B"/>
<stop offset="0.06" stop-color="#D7B157"/>
<stop offset="0.08" stop-color="#E1C06B"/>
<stop offset="0.11" stop-color="#EED586"/>
<stop offset="0.2" stop-color="#EAD084"/>
<stop offset="0.43" stop-color="#E2C77F"/>
<stop offset="0.45" stop-color="#E7CF8C"/>
<stop offset="0.52" stop-color="#F7EDB7"/>
<stop offset="0.55" stop-color="#FDF8C8"/>
<stop offset="0.59" stop-color="#FDF8C8"/>
<stop offset="0.74" stop-color="#DFC77F"/>
<stop offset="0.89" stop-color="#DDB854"/>
<stop offset="0.91" stop-color="#D9B350"/>
<stop offset="0.94" stop-color="#CEA546"/>
<stop offset="0.98" stop-color="#BB8F34"/>
<stop offset="0.99" stop-color="#AE7F28"/>
</linearGradient>
<linearGradient id="paint19_linear_1_677" x1="159.441" y1="34.4598" x2="161.193" y2="18.9174" gradientUnits="userSpaceOnUse">
<stop stop-color="#CFA547"/>
<stop offset="0.03" stop-color="#D1A84B"/>
<stop offset="0.06" stop-color="#D7B157"/>
<stop offset="0.08" stop-color="#E1C06B"/>
<stop offset="0.11" stop-color="#EED586"/>
<stop offset="0.2" stop-color="#EAD084"/>
<stop offset="0.43" stop-color="#E2C77F"/>
<stop offset="0.45" stop-color="#E7CF8C"/>
<stop offset="0.52" stop-color="#F7EDB7"/>
<stop offset="0.55" stop-color="#FDF8C8"/>
<stop offset="0.59" stop-color="#FDF8C8"/>
<stop offset="0.74" stop-color="#DFC77F"/>
<stop offset="0.89" stop-color="#DDB854"/>
<stop offset="0.91" stop-color="#D9B350"/>
<stop offset="0.94" stop-color="#CEA546"/>
<stop offset="0.98" stop-color="#BB8F34"/>
<stop offset="0.99" stop-color="#AE7F28"/>
</linearGradient>
<linearGradient id="paint20_linear_1_677" x1="128.962" y1="39.7513" x2="144.503" y2="30.744" gradientUnits="userSpaceOnUse">
<stop stop-color="#CFA547"/>
<stop offset="0.03" stop-color="#D1A84B"/>
<stop offset="0.06" stop-color="#D7B157"/>
<stop offset="0.08" stop-color="#E1C06B"/>
<stop offset="0.11" stop-color="#EED586"/>
<stop offset="0.2" stop-color="#EAD084"/>
<stop offset="0.43" stop-color="#E2C77F"/>
<stop offset="0.45" stop-color="#E7CF8C"/>
<stop offset="0.52" stop-color="#F7EDB7"/>
<stop offset="0.55" stop-color="#FDF8C8"/>
<stop offset="0.59" stop-color="#FDF8C8"/>
<stop offset="0.74" stop-color="#DFC77F"/>
<stop offset="0.89" stop-color="#DDB854"/>
<stop offset="0.91" stop-color="#D9B350"/>
<stop offset="0.94" stop-color="#CEA546"/>
<stop offset="0.98" stop-color="#BB8F34"/>
<stop offset="0.99" stop-color="#AE7F28"/>
</linearGradient>
<linearGradient id="paint21_linear_1_677" x1="132.705" y1="25.1354" x2="146.218" y2="25.9345" gradientUnits="userSpaceOnUse">
<stop stop-color="#CFA547"/>
<stop offset="0.03" stop-color="#D1A84B"/>
<stop offset="0.06" stop-color="#D7B157"/>
<stop offset="0.08" stop-color="#E1C06B"/>
<stop offset="0.11" stop-color="#EED586"/>
<stop offset="0.2" stop-color="#EAD084"/>
<stop offset="0.43" stop-color="#E2C77F"/>
<stop offset="0.45" stop-color="#E7CF8C"/>
<stop offset="0.52" stop-color="#F7EDB7"/>
<stop offset="0.55" stop-color="#FDF8C8"/>
<stop offset="0.59" stop-color="#FDF8C8"/>
<stop offset="0.74" stop-color="#DFC77F"/>
<stop offset="0.89" stop-color="#DDB854"/>
<stop offset="0.91" stop-color="#D9B350"/>
<stop offset="0.94" stop-color="#CEA546"/>
<stop offset="0.98" stop-color="#BB8F34"/>
<stop offset="0.99" stop-color="#AE7F28"/>
</linearGradient>
<linearGradient id="paint22_linear_1_677" x1="141.348" y1="29.4653" x2="153.264" y2="19.56" gradientUnits="userSpaceOnUse">
<stop stop-color="#CFA547"/>
<stop offset="0.03" stop-color="#D1A84B"/>
<stop offset="0.06" stop-color="#D7B157"/>
<stop offset="0.08" stop-color="#E1C06B"/>
<stop offset="0.11" stop-color="#EED586"/>
<stop offset="0.2" stop-color="#EAD084"/>
<stop offset="0.43" stop-color="#E2C77F"/>
<stop offset="0.45" stop-color="#E7CF8C"/>
<stop offset="0.52" stop-color="#F7EDB7"/>
<stop offset="0.55" stop-color="#FDF8C8"/>
<stop offset="0.59" stop-color="#FDF8C8"/>
<stop offset="0.74" stop-color="#DFC77F"/>
<stop offset="0.89" stop-color="#DDB854"/>
<stop offset="0.91" stop-color="#D9B350"/>
<stop offset="0.94" stop-color="#CEA546"/>
<stop offset="0.98" stop-color="#BB8F34"/>
<stop offset="0.99" stop-color="#AE7F28"/>
</linearGradient>
<linearGradient id="paint23_linear_1_677" x1="100.254" y1="149.123" x2="287.873" y2="83.5854" gradientUnits="userSpaceOnUse">
<stop stop-color="#CFA547"/>
<stop offset="0.03" stop-color="#D1A84B"/>
<stop offset="0.06" stop-color="#D7B157"/>
<stop offset="0.08" stop-color="#E1C06B"/>
<stop offset="0.11" stop-color="#EED586"/>
<stop offset="0.2" stop-color="#EAD084"/>
<stop offset="0.43" stop-color="#E2C77F"/>
<stop offset="0.45" stop-color="#E7CF8C"/>
<stop offset="0.52" stop-color="#F7EDB7"/>
<stop offset="0.55" stop-color="#FDF8C8"/>
<stop offset="0.59" stop-color="#FDF8C8"/>
<stop offset="0.74" stop-color="#DFC77F"/>
<stop offset="0.89" stop-color="#DDB854"/>
<stop offset="0.91" stop-color="#D9B350"/>
<stop offset="0.94" stop-color="#CEA546"/>
<stop offset="0.98" stop-color="#BB8F34"/>
<stop offset="0.99" stop-color="#AE7F28"/>
</linearGradient>
<linearGradient id="paint24_linear_1_677" x1="170.493" y1="153.052" x2="179.916" y2="142.346" gradientUnits="userSpaceOnUse">
<stop stop-color="#CFA547"/>
<stop offset="0.03" stop-color="#D1A84B"/>
<stop offset="0.06" stop-color="#D7B157"/>
<stop offset="0.08" stop-color="#E1C06B"/>
<stop offset="0.11" stop-color="#EED586"/>
<stop offset="0.2" stop-color="#EAD084"/>
<stop offset="0.43" stop-color="#E2C77F"/>
<stop offset="0.45" stop-color="#E7CF8C"/>
<stop offset="0.52" stop-color="#F7EDB7"/>
<stop offset="0.55" stop-color="#FDF8C8"/>
<stop offset="0.59" stop-color="#FDF8C8"/>
<stop offset="0.74" stop-color="#DFC77F"/>
<stop offset="0.89" stop-color="#DDB854"/>
<stop offset="0.91" stop-color="#D9B350"/>
<stop offset="0.94" stop-color="#CEA546"/>
<stop offset="0.98" stop-color="#BB8F34"/>
<stop offset="0.99" stop-color="#AE7F28"/>
</linearGradient>
<linearGradient id="paint25_linear_1_677" x1="169.178" y1="144.378" x2="187.162" y2="139.73" gradientUnits="userSpaceOnUse">
<stop stop-color="#CFA547"/>
<stop offset="0.03" stop-color="#D1A84B"/>
<stop offset="0.06" stop-color="#D7B157"/>
<stop offset="0.08" stop-color="#E1C06B"/>
<stop offset="0.11" stop-color="#EED586"/>
<stop offset="0.2" stop-color="#EAD084"/>
<stop offset="0.43" stop-color="#E2C77F"/>
<stop offset="0.45" stop-color="#E7CF8C"/>
<stop offset="0.52" stop-color="#F7EDB7"/>
<stop offset="0.55" stop-color="#FDF8C8"/>
<stop offset="0.59" stop-color="#FDF8C8"/>
<stop offset="0.74" stop-color="#DFC77F"/>
<stop offset="0.89" stop-color="#DDB854"/>
<stop offset="0.91" stop-color="#D9B350"/>
<stop offset="0.94" stop-color="#CEA546"/>
<stop offset="0.98" stop-color="#BB8F34"/>
<stop offset="0.99" stop-color="#AE7F28"/>
</linearGradient>
<linearGradient id="paint26_linear_1_677" x1="189.913" y1="150.668" x2="200.046" y2="139.761" gradientUnits="userSpaceOnUse">
<stop stop-color="#CFA547"/>
<stop offset="0.03" stop-color="#D1A84B"/>
<stop offset="0.06" stop-color="#D7B157"/>
<stop offset="0.08" stop-color="#E1C06B"/>
<stop offset="0.11" stop-color="#EED586"/>
<stop offset="0.2" stop-color="#EAD084"/>
<stop offset="0.43" stop-color="#E2C77F"/>
<stop offset="0.45" stop-color="#E7CF8C"/>
<stop offset="0.52" stop-color="#F7EDB7"/>
<stop offset="0.55" stop-color="#FDF8C8"/>
<stop offset="0.59" stop-color="#FDF8C8"/>
<stop offset="0.74" stop-color="#DFC77F"/>
<stop offset="0.89" stop-color="#DDB854"/>
<stop offset="0.91" stop-color="#D9B350"/>
<stop offset="0.94" stop-color="#CEA546"/>
<stop offset="0.98" stop-color="#BB8F34"/>
<stop offset="0.99" stop-color="#AE7F28"/>
</linearGradient>
<linearGradient id="paint27_linear_1_677" x1="185.71" y1="143.178" x2="200.954" y2="142.211" gradientUnits="userSpaceOnUse">
<stop stop-color="#CFA547"/>
<stop offset="0.03" stop-color="#D1A84B"/>
<stop offset="0.06" stop-color="#D7B157"/>
<stop offset="0.08" stop-color="#E1C06B"/>
<stop offset="0.11" stop-color="#EED586"/>
<stop offset="0.2" stop-color="#EAD084"/>
<stop offset="0.43" stop-color="#E2C77F"/>
<stop offset="0.45" stop-color="#E7CF8C"/>
<stop offset="0.52" stop-color="#F7EDB7"/>
<stop offset="0.55" stop-color="#FDF8C8"/>
<stop offset="0.59" stop-color="#FDF8C8"/>
<stop offset="0.74" stop-color="#DFC77F"/>
<stop offset="0.89" stop-color="#DDB854"/>
<stop offset="0.91" stop-color="#D9B350"/>
<stop offset="0.94" stop-color="#CEA546"/>
<stop offset="0.98" stop-color="#BB8F34"/>
<stop offset="0.99" stop-color="#AE7F28"/>
</linearGradient>
<linearGradient id="paint28_linear_1_677" x1="206.598" y1="144.364" x2="225.708" y2="133.457" gradientUnits="userSpaceOnUse">
<stop stop-color="#CFA547"/>
<stop offset="0.03" stop-color="#D1A84B"/>
<stop offset="0.06" stop-color="#D7B157"/>
<stop offset="0.08" stop-color="#E1C06B"/>
<stop offset="0.11" stop-color="#EED586"/>
<stop offset="0.2" stop-color="#EAD084"/>
<stop offset="0.43" stop-color="#E2C77F"/>
<stop offset="0.45" stop-color="#E7CF8C"/>
<stop offset="0.52" stop-color="#F7EDB7"/>
<stop offset="0.55" stop-color="#FDF8C8"/>
<stop offset="0.59" stop-color="#FDF8C8"/>
<stop offset="0.74" stop-color="#DFC77F"/>
<stop offset="0.89" stop-color="#DDB854"/>
<stop offset="0.91" stop-color="#D9B350"/>
<stop offset="0.94" stop-color="#CEA546"/>
<stop offset="0.98" stop-color="#BB8F34"/>
<stop offset="0.99" stop-color="#AE7F28"/>
</linearGradient>
<linearGradient id="paint29_linear_1_677" x1="199.937" y1="137.654" x2="212.368" y2="138.287" gradientUnits="userSpaceOnUse">
<stop stop-color="#CFA547"/>
<stop offset="0.03" stop-color="#D1A84B"/>
<stop offset="0.06" stop-color="#D7B157"/>
<stop offset="0.08" stop-color="#E1C06B"/>
<stop offset="0.11" stop-color="#EED586"/>
<stop offset="0.2" stop-color="#EAD084"/>
<stop offset="0.43" stop-color="#E2C77F"/>
<stop offset="0.45" stop-color="#E7CF8C"/>
<stop offset="0.52" stop-color="#F7EDB7"/>
<stop offset="0.55" stop-color="#FDF8C8"/>
<stop offset="0.59" stop-color="#FDF8C8"/>
<stop offset="0.74" stop-color="#DFC77F"/>
<stop offset="0.89" stop-color="#DDB854"/>
<stop offset="0.91" stop-color="#D9B350"/>
<stop offset="0.94" stop-color="#CEA546"/>
<stop offset="0.98" stop-color="#BB8F34"/>
<stop offset="0.99" stop-color="#AE7F28"/>
</linearGradient>
<linearGradient id="paint30_linear_1_677" x1="220.03" y1="132.373" x2="240.215" y2="125.128" gradientUnits="userSpaceOnUse">
<stop stop-color="#CFA547"/>
<stop offset="0.03" stop-color="#D1A84B"/>
<stop offset="0.06" stop-color="#D7B157"/>
<stop offset="0.08" stop-color="#E1C06B"/>
<stop offset="0.11" stop-color="#EED586"/>
<stop offset="0.2" stop-color="#EAD084"/>
<stop offset="0.43" stop-color="#E2C77F"/>
<stop offset="0.45" stop-color="#E7CF8C"/>
<stop offset="0.52" stop-color="#F7EDB7"/>
<stop offset="0.55" stop-color="#FDF8C8"/>
<stop offset="0.59" stop-color="#FDF8C8"/>
<stop offset="0.74" stop-color="#DFC77F"/>
<stop offset="0.89" stop-color="#DDB854"/>
<stop offset="0.91" stop-color="#D9B350"/>
<stop offset="0.94" stop-color="#CEA546"/>
<stop offset="0.98" stop-color="#BB8F34"/>
<stop offset="0.99" stop-color="#AE7F28"/>
</linearGradient>
<linearGradient id="paint31_linear_1_677" x1="210.563" y1="126.529" x2="224.129" y2="126.846" gradientUnits="userSpaceOnUse">
<stop stop-color="#CFA547"/>
<stop offset="0.03" stop-color="#D1A84B"/>
<stop offset="0.06" stop-color="#D7B157"/>
<stop offset="0.08" stop-color="#E1C06B"/>
<stop offset="0.11" stop-color="#EED586"/>
<stop offset="0.2" stop-color="#EAD084"/>
<stop offset="0.43" stop-color="#E2C77F"/>
<stop offset="0.45" stop-color="#E7CF8C"/>
<stop offset="0.52" stop-color="#F7EDB7"/>
<stop offset="0.55" stop-color="#FDF8C8"/>
<stop offset="0.59" stop-color="#FDF8C8"/>
<stop offset="0.74" stop-color="#DFC77F"/>
<stop offset="0.89" stop-color="#DDB854"/>
<stop offset="0.91" stop-color="#D9B350"/>
<stop offset="0.94" stop-color="#CEA546"/>
<stop offset="0.98" stop-color="#BB8F34"/>
<stop offset="0.99" stop-color="#AE7F28"/>
</linearGradient>
<linearGradient id="paint32_linear_1_677" x1="229.753" y1="118.349" x2="248.745" y2="115.446" gradientUnits="userSpaceOnUse">
<stop stop-color="#CFA547"/>
<stop offset="0.03" stop-color="#D1A84B"/>
<stop offset="0.06" stop-color="#D7B157"/>
<stop offset="0.08" stop-color="#E1C06B"/>
<stop offset="0.11" stop-color="#EED586"/>
<stop offset="0.2" stop-color="#EAD084"/>
<stop offset="0.43" stop-color="#E2C77F"/>
<stop offset="0.45" stop-color="#E7CF8C"/>
<stop offset="0.52" stop-color="#F7EDB7"/>
<stop offset="0.55" stop-color="#FDF8C8"/>
<stop offset="0.59" stop-color="#FDF8C8"/>
<stop offset="0.74" stop-color="#DFC77F"/>
<stop offset="0.89" stop-color="#DDB854"/>
<stop offset="0.91" stop-color="#D9B350"/>
<stop offset="0.94" stop-color="#CEA546"/>
<stop offset="0.98" stop-color="#BB8F34"/>
<stop offset="0.99" stop-color="#AE7F28"/>
</linearGradient>
<linearGradient id="paint33_linear_1_677" x1="218.467" y1="112.322" x2="234.72" y2="110.68" gradientUnits="userSpaceOnUse">
<stop stop-color="#CFA547"/>
<stop offset="0.03" stop-color="#D1A84B"/>
<stop offset="0.06" stop-color="#D7B157"/>
<stop offset="0.08" stop-color="#E1C06B"/>
<stop offset="0.11" stop-color="#EED586"/>
<stop offset="0.2" stop-color="#EAD084"/>
<stop offset="0.43" stop-color="#E2C77F"/>
<stop offset="0.45" stop-color="#E7CF8C"/>
<stop offset="0.52" stop-color="#F7EDB7"/>
<stop offset="0.55" stop-color="#FDF8C8"/>
<stop offset="0.59" stop-color="#FDF8C8"/>
<stop offset="0.74" stop-color="#DFC77F"/>
<stop offset="0.89" stop-color="#DDB854"/>
<stop offset="0.91" stop-color="#D9B350"/>
<stop offset="0.94" stop-color="#CEA546"/>
<stop offset="0.98" stop-color="#BB8F34"/>
<stop offset="0.99" stop-color="#AE7F28"/>
</linearGradient>
<linearGradient id="paint34_linear_1_677" x1="235.9" y1="102.542" x2="251.443" y2="102.654" gradientUnits="userSpaceOnUse">
<stop stop-color="#CFA547"/>
<stop offset="0.03" stop-color="#D1A84B"/>
<stop offset="0.06" stop-color="#D7B157"/>
<stop offset="0.08" stop-color="#E1C06B"/>
<stop offset="0.11" stop-color="#EED586"/>
<stop offset="0.2" stop-color="#EAD084"/>
<stop offset="0.43" stop-color="#E2C77F"/>
<stop offset="0.45" stop-color="#E7CF8C"/>
<stop offset="0.52" stop-color="#F7EDB7"/>
<stop offset="0.55" stop-color="#FDF8C8"/>
<stop offset="0.59" stop-color="#FDF8C8"/>
<stop offset="0.74" stop-color="#DFC77F"/>
<stop offset="0.89" stop-color="#DDB854"/>
<stop offset="0.91" stop-color="#D9B350"/>
<stop offset="0.94" stop-color="#CEA546"/>
<stop offset="0.98" stop-color="#BB8F34"/>
<stop offset="0.99" stop-color="#AE7F28"/>
</linearGradient>
<linearGradient id="paint35_linear_1_677" x1="222.715" y1="96.0347" x2="240.536" y2="90.3582" gradientUnits="userSpaceOnUse">
<stop stop-color="#CFA547"/>
<stop offset="0.03" stop-color="#D1A84B"/>
<stop offset="0.06" stop-color="#D7B157"/>
<stop offset="0.08" stop-color="#E1C06B"/>
<stop offset="0.11" stop-color="#EED586"/>
<stop offset="0.2" stop-color="#EAD084"/>
<stop offset="0.43" stop-color="#E2C77F"/>
<stop offset="0.45" stop-color="#E7CF8C"/>
<stop offset="0.52" stop-color="#F7EDB7"/>
<stop offset="0.55" stop-color="#FDF8C8"/>
<stop offset="0.59" stop-color="#FDF8C8"/>
<stop offset="0.74" stop-color="#DFC77F"/>
<stop offset="0.89" stop-color="#DDB854"/>
<stop offset="0.91" stop-color="#D9B350"/>
<stop offset="0.94" stop-color="#CEA546"/>
<stop offset="0.98" stop-color="#BB8F34"/>
<stop offset="0.99" stop-color="#AE7F28"/>
</linearGradient>
<linearGradient id="paint36_linear_1_677" x1="237.844" y1="85.346" x2="251.246" y2="86.2981" gradientUnits="userSpaceOnUse">
<stop stop-color="#CFA547"/>
<stop offset="0.03" stop-color="#D1A84B"/>
<stop offset="0.06" stop-color="#D7B157"/>
<stop offset="0.08" stop-color="#E1C06B"/>
<stop offset="0.11" stop-color="#EED586"/>
<stop offset="0.2" stop-color="#EAD084"/>
<stop offset="0.43" stop-color="#E2C77F"/>
<stop offset="0.45" stop-color="#E7CF8C"/>
<stop offset="0.52" stop-color="#F7EDB7"/>
<stop offset="0.55" stop-color="#FDF8C8"/>
<stop offset="0.59" stop-color="#FDF8C8"/>
<stop offset="0.74" stop-color="#DFC77F"/>
<stop offset="0.89" stop-color="#DDB854"/>
<stop offset="0.91" stop-color="#D9B350"/>
<stop offset="0.94" stop-color="#CEA546"/>
<stop offset="0.98" stop-color="#BB8F34"/>
<stop offset="0.99" stop-color="#AE7F28"/>
</linearGradient>
<linearGradient id="paint37_linear_1_677" x1="223.421" y1="79.0539" x2="238.893" y2="70.0793" gradientUnits="userSpaceOnUse">
<stop stop-color="#CFA547"/>
<stop offset="0.03" stop-color="#D1A84B"/>
<stop offset="0.06" stop-color="#D7B157"/>
<stop offset="0.08" stop-color="#E1C06B"/>
<stop offset="0.11" stop-color="#EED586"/>
<stop offset="0.2" stop-color="#EAD084"/>
<stop offset="0.43" stop-color="#E2C77F"/>
<stop offset="0.45" stop-color="#E7CF8C"/>
<stop offset="0.52" stop-color="#F7EDB7"/>
<stop offset="0.55" stop-color="#FDF8C8"/>
<stop offset="0.59" stop-color="#FDF8C8"/>
<stop offset="0.74" stop-color="#DFC77F"/>
<stop offset="0.89" stop-color="#DDB854"/>
<stop offset="0.91" stop-color="#D9B350"/>
<stop offset="0.94" stop-color="#CEA546"/>
<stop offset="0.98" stop-color="#BB8F34"/>
<stop offset="0.99" stop-color="#AE7F28"/>
</linearGradient>
<linearGradient id="paint38_linear_1_677" x1="235.246" y1="67.7682" x2="248.68" y2="68.605" gradientUnits="userSpaceOnUse">
<stop stop-color="#CFA547"/>
<stop offset="0.03" stop-color="#D1A84B"/>
<stop offset="0.06" stop-color="#D7B157"/>
<stop offset="0.08" stop-color="#E1C06B"/>
<stop offset="0.11" stop-color="#EED586"/>
<stop offset="0.2" stop-color="#EAD084"/>
<stop offset="0.43" stop-color="#E2C77F"/>
<stop offset="0.45" stop-color="#E7CF8C"/>
<stop offset="0.52" stop-color="#F7EDB7"/>
<stop offset="0.55" stop-color="#FDF8C8"/>
<stop offset="0.59" stop-color="#FDF8C8"/>
<stop offset="0.74" stop-color="#DFC77F"/>
<stop offset="0.89" stop-color="#DDB854"/>
<stop offset="0.91" stop-color="#D9B350"/>
<stop offset="0.94" stop-color="#CEA546"/>
<stop offset="0.98" stop-color="#BB8F34"/>
<stop offset="0.99" stop-color="#AE7F28"/>
</linearGradient>
<linearGradient id="paint39_linear_1_677" x1="220.64" y1="62.7216" x2="232.7" y2="52.7623" gradientUnits="userSpaceOnUse">
<stop stop-color="#CFA547"/>
<stop offset="0.03" stop-color="#D1A84B"/>
<stop offset="0.06" stop-color="#D7B157"/>
<stop offset="0.08" stop-color="#E1C06B"/>
<stop offset="0.11" stop-color="#EED586"/>
<stop offset="0.2" stop-color="#EAD084"/>
<stop offset="0.43" stop-color="#E2C77F"/>
<stop offset="0.45" stop-color="#E7CF8C"/>
<stop offset="0.52" stop-color="#F7EDB7"/>
<stop offset="0.55" stop-color="#FDF8C8"/>
<stop offset="0.59" stop-color="#FDF8C8"/>
<stop offset="0.74" stop-color="#DFC77F"/>
<stop offset="0.89" stop-color="#DDB854"/>
<stop offset="0.91" stop-color="#D9B350"/>
<stop offset="0.94" stop-color="#CEA546"/>
<stop offset="0.98" stop-color="#BB8F34"/>
<stop offset="0.99" stop-color="#AE7F28"/>
</linearGradient>
<linearGradient id="paint40_linear_1_677" x1="154.688" y1="44.55" x2="154.688" y2="165" gradientUnits="userSpaceOnUse">
<stop stop-color="#0F0F16" stop-opacity="0"/>
<stop offset="0.736495" stop-color="#0F0F16"/>
</linearGradient>
<linearGradient id="paint41_linear_1_677" x1="136.355" y1="110.786" x2="177.535" y2="53.8573" gradientUnits="userSpaceOnUse">
<stop stop-color="#CFA547"/>
<stop offset="0.03" stop-color="#D1A84B"/>
<stop offset="0.06" stop-color="#D7B157"/>
<stop offset="0.08" stop-color="#E1C06B"/>
<stop offset="0.11" stop-color="#EED586"/>
<stop offset="0.2" stop-color="#EAD084"/>
<stop offset="0.43" stop-color="#E2C77F"/>
<stop offset="0.45" stop-color="#E7CF8C"/>
<stop offset="0.52" stop-color="#F7EDB7"/>
<stop offset="0.55" stop-color="#FDF8C8"/>
<stop offset="0.59" stop-color="#FDF8C8"/>
<stop offset="0.74" stop-color="#DFC77F"/>
<stop offset="0.89" stop-color="#DDB854"/>
<stop offset="0.91" stop-color="#D9B350"/>
<stop offset="0.94" stop-color="#CEA546"/>
<stop offset="0.98" stop-color="#BB8F34"/>
<stop offset="0.99" stop-color="#AE7F28"/>
</linearGradient>
<linearGradient id="paint42_linear_1_677" x1="25.2118" y1="189.077" x2="222.882" y2="-63.3676" gradientUnits="userSpaceOnUse">
<stop stop-color="#CFA547"/>
<stop offset="0.03" stop-color="#D1A84B"/>
<stop offset="0.06" stop-color="#D7B157"/>
<stop offset="0.08" stop-color="#E1C06B"/>
<stop offset="0.11" stop-color="#EED586"/>
<stop offset="0.2" stop-color="#EAD084"/>
<stop offset="0.43" stop-color="#E2C77F"/>
<stop offset="0.45" stop-color="#E7CF8C"/>
<stop offset="0.52" stop-color="#F7EDB7"/>
<stop offset="0.55" stop-color="#FDF8C8"/>
<stop offset="0.59" stop-color="#FDF8C8"/>
<stop offset="0.74" stop-color="#DFC77F"/>
<stop offset="0.89" stop-color="#DDB854"/>
<stop offset="0.91" stop-color="#D9B350"/>
<stop offset="0.94" stop-color="#CEA546"/>
<stop offset="0.98" stop-color="#BB8F34"/>
<stop offset="0.99" stop-color="#AE7F28"/>
</linearGradient>
<linearGradient id="paint43_linear_1_677" x1="13.2272" y1="179.677" x2="210.897" y2="-72.7456" gradientUnits="userSpaceOnUse">
<stop stop-color="#CFA547"/>
<stop offset="0.03" stop-color="#D1A84B"/>
<stop offset="0.06" stop-color="#D7B157"/>
<stop offset="0.08" stop-color="#E1C06B"/>
<stop offset="0.11" stop-color="#EED586"/>
<stop offset="0.2" stop-color="#EAD084"/>
<stop offset="0.43" stop-color="#E2C77F"/>
<stop offset="0.45" stop-color="#E7CF8C"/>
<stop offset="0.52" stop-color="#F7EDB7"/>
<stop offset="0.55" stop-color="#FDF8C8"/>
<stop offset="0.59" stop-color="#FDF8C8"/>
<stop offset="0.74" stop-color="#DFC77F"/>
<stop offset="0.89" stop-color="#DDB854"/>
<stop offset="0.91" stop-color="#D9B350"/>
<stop offset="0.94" stop-color="#CEA546"/>
<stop offset="0.98" stop-color="#BB8F34"/>
<stop offset="0.99" stop-color="#AE7F28"/>
</linearGradient>
<linearGradient id="paint44_linear_1_677" x1="6.56211" y1="174.464" x2="204.232" y2="-77.9587" gradientUnits="userSpaceOnUse">
<stop stop-color="#CFA547"/>
<stop offset="0.03" stop-color="#D1A84B"/>
<stop offset="0.06" stop-color="#D7B157"/>
<stop offset="0.08" stop-color="#E1C06B"/>
<stop offset="0.11" stop-color="#EED586"/>
<stop offset="0.2" stop-color="#EAD084"/>
<stop offset="0.43" stop-color="#E2C77F"/>
<stop offset="0.45" stop-color="#E7CF8C"/>
<stop offset="0.52" stop-color="#F7EDB7"/>
<stop offset="0.55" stop-color="#FDF8C8"/>
<stop offset="0.59" stop-color="#FDF8C8"/>
<stop offset="0.74" stop-color="#DFC77F"/>
<stop offset="0.89" stop-color="#DDB854"/>
<stop offset="0.91" stop-color="#D9B350"/>
<stop offset="0.94" stop-color="#CEA546"/>
<stop offset="0.98" stop-color="#BB8F34"/>
<stop offset="0.99" stop-color="#AE7F28"/>
</linearGradient>
<linearGradient id="paint45_linear_1_677" x1="41.0418" y1="201.467" x2="238.711" y2="-50.9769" gradientUnits="userSpaceOnUse">
<stop stop-color="#CFA547"/>
<stop offset="0.03" stop-color="#D1A84B"/>
<stop offset="0.06" stop-color="#D7B157"/>
<stop offset="0.08" stop-color="#E1C06B"/>
<stop offset="0.11" stop-color="#EED586"/>
<stop offset="0.2" stop-color="#EAD084"/>
<stop offset="0.43" stop-color="#E2C77F"/>
<stop offset="0.45" stop-color="#E7CF8C"/>
<stop offset="0.52" stop-color="#F7EDB7"/>
<stop offset="0.55" stop-color="#FDF8C8"/>
<stop offset="0.59" stop-color="#FDF8C8"/>
<stop offset="0.74" stop-color="#DFC77F"/>
<stop offset="0.89" stop-color="#DDB854"/>
<stop offset="0.91" stop-color="#D9B350"/>
<stop offset="0.94" stop-color="#CEA546"/>
<stop offset="0.98" stop-color="#BB8F34"/>
<stop offset="0.99" stop-color="#AE7F28"/>
</linearGradient>
<linearGradient id="paint46_linear_1_677" x1="56.551" y1="213.622" x2="254.221" y2="-38.8218" gradientUnits="userSpaceOnUse">
<stop stop-color="#CFA547"/>
<stop offset="0.03" stop-color="#D1A84B"/>
<stop offset="0.06" stop-color="#D7B157"/>
<stop offset="0.08" stop-color="#E1C06B"/>
<stop offset="0.11" stop-color="#EED586"/>
<stop offset="0.2" stop-color="#EAD084"/>
<stop offset="0.43" stop-color="#E2C77F"/>
<stop offset="0.45" stop-color="#E7CF8C"/>
<stop offset="0.52" stop-color="#F7EDB7"/>
<stop offset="0.55" stop-color="#FDF8C8"/>
<stop offset="0.59" stop-color="#FDF8C8"/>
<stop offset="0.74" stop-color="#DFC77F"/>
<stop offset="0.89" stop-color="#DDB854"/>
<stop offset="0.91" stop-color="#D9B350"/>
<stop offset="0.94" stop-color="#CEA546"/>
<stop offset="0.98" stop-color="#BB8F34"/>
<stop offset="0.99" stop-color="#AE7F28"/>
</linearGradient>
<linearGradient id="paint47_linear_1_677" x1="104.807" y1="167.407" x2="122.822" y2="93.7702" gradientUnits="userSpaceOnUse">
<stop stop-color="#CFA547"/>
<stop offset="0.03" stop-color="#D1A84B"/>
<stop offset="0.06" stop-color="#D7B157"/>
<stop offset="0.08" stop-color="#E1C06B"/>
<stop offset="0.11" stop-color="#EED586"/>
<stop offset="0.2" stop-color="#EAD084"/>
<stop offset="0.43" stop-color="#E2C77F"/>
<stop offset="0.45" stop-color="#E7CF8C"/>
<stop offset="0.52" stop-color="#F7EDB7"/>
<stop offset="0.55" stop-color="#FDF8C8"/>
<stop offset="0.59" stop-color="#FDF8C8"/>
<stop offset="0.74" stop-color="#DFC77F"/>
<stop offset="0.89" stop-color="#DDB854"/>
<stop offset="0.91" stop-color="#D9B350"/>
<stop offset="0.94" stop-color="#CEA546"/>
<stop offset="0.98" stop-color="#BB8F34"/>
<stop offset="0.99" stop-color="#AE7F28"/>
</linearGradient>
<clipPath id="clip0_1_677">
<rect width="309.375" height="165" fill="white"/>
</clipPath>
<clipPath id="clip1_1_677">
<rect width="76.5691" height="138.933" fill="white" transform="matrix(0.927184 -0.374607 0.374904 0.927064 43.5515 52.2418)"/>
</clipPath>
<clipPath id="clip2_1_677">
<rect width="75.8974" height="138.933" fill="white" transform="matrix(0.927184 0.374607 -0.374904 0.927064 195.929 23.6843)"/>
</clipPath>
</defs>
</svg>
