<svg width="48" height="48" viewBox="0 0 48 48" fill="none" xmlns="http://www.w3.org/2000/svg">
    <rect width="48" height="48" rx="24" fill="#FFFFFF" />
    <path
        d="M32.3428 15.6806C32.1536 15.4927 31.9164 15.3607 31.657 15.299C31.3977 15.2372 31.1263 15.2481 30.8728 15.3306L16.2428 20.2106C15.9715 20.2966 15.7317 20.461 15.5538 20.6832C15.3759 20.9053 15.2678 21.1752 15.2432 21.4588C15.2186 21.7424 15.2785 22.0269 15.4155 22.2763C15.5525 22.5258 15.7604 22.7291 16.0128 22.8606L22.0828 25.8606L25.0828 31.9506C25.2034 32.189 25.3879 32.3891 25.6157 32.5286C25.8435 32.6681 26.1057 32.7415 26.3728 32.7406H26.4728C26.7589 32.7195 27.0321 32.6129 27.2568 32.4345C27.4815 32.2562 27.6473 32.0144 27.7328 31.7406L32.6828 17.1506C32.7712 16.8985 32.7862 16.6265 32.726 16.3663C32.6658 16.106 32.5329 15.8682 32.3428 15.6806ZM16.8628 21.5906L29.6328 17.3306L22.5428 24.4206L16.8628 21.5906ZM26.4428 31.1606L23.6028 25.4806L30.6928 18.3906L26.4428 31.1606Z"
        fill="#303030" />
</svg>
