<svg width="20" height="20" viewBox="0 0 20 20" fill="none" xmlns="http://www.w3.org/2000/svg">
    <path opacity="0.5"
        d="M18.3333 10.0003C18.3333 14.6027 14.6023 18.3337 9.99996 18.3337C5.39759 18.3337 1.66663 14.6027 1.66663 10.0003C1.66663 5.39795 5.39759 1.66699 9.99996 1.66699C14.6023 1.66699 18.3333 5.39795 18.3333 10.0003Z"
        stroke="#8F8F8F" />
    <path
        d="M7.15478 7.15515C6.66663 7.6433 6.66663 8.42898 6.66663 10.0003C6.66663 11.5717 6.66663 12.3573 7.15478 12.8455C7.64294 13.3337 8.42861 13.3337 9.99996 13.3337C11.5713 13.3337 12.357 13.3337 12.8451 12.8455C13.3333 12.3573 13.3333 11.5717 13.3333 10.0003C13.3333 8.42898 13.3333 7.6433 12.8451 7.15515C12.357 6.66699 11.5713 6.66699 9.99996 6.66699C8.42861 6.66699 7.64294 6.66699 7.15478 7.15515Z"
        fill="#8F8F8F" />
</svg>
