<svg width="144" height="144" viewBox="0 0 144 144" fill="none" xmlns="http://www.w3.org/2000/svg">
<g filter="url(#filter0_d_62_207)">
<circle cx="72" cy="68" r="38.5" fill="#324EFF"/>
</g>
<circle cx="34" cy="99" r="5.5" fill="#324EFF"/>
<circle cx="111" cy="36" r="5.5" fill="#324EFF"/>
<path d="M60.1395 67L68.2196 75.08C69.0029 75.8633 70.2737 75.8607 71.0538 75.0741L86.5001 59.5" stroke="white" stroke-width="5" stroke-linecap="round"/>
<g filter="url(#filter1_f_62_207)">
<path d="M60.1395 67L68.2196 75.08C69.0029 75.8633 70.2737 75.8607 71.0538 75.0741L86.5001 59.5" stroke="white" stroke-width="5" stroke-linecap="round"/>
</g>
<path d="M115.062 51.0342C115.384 50.1636 116.616 50.1636 116.938 51.0342L117.056 51.3533C117.157 51.627 117.373 51.8428 117.647 51.9441L117.966 52.0622C118.836 52.3843 118.836 53.6157 117.966 53.9378L117.647 54.0559C117.373 54.1572 117.157 54.373 117.056 54.6467L116.938 54.9658C116.616 55.8364 115.384 55.8364 115.062 54.9658L114.944 54.6467C114.843 54.373 114.627 54.1572 114.353 54.0559L114.034 53.9378C113.164 53.6157 113.164 52.3843 114.034 52.0622L114.353 51.9441C114.627 51.8428 114.843 51.627 114.944 51.3533L115.062 51.0342Z" fill="#324EFF"/>
<path d="M26.5622 79.0342C26.8843 78.1636 28.1157 78.1636 28.4378 79.0342L28.691 79.7182C28.7923 79.9919 29.0081 80.2077 29.2818 80.309L29.9658 80.5622C30.8364 80.8843 30.8364 82.1157 29.9658 82.4378L29.2818 82.691C29.0081 82.7923 28.7923 83.0081 28.691 83.2818L28.4378 83.9658C28.1157 84.8364 26.8843 84.8364 26.5622 83.9658L26.309 83.2818C26.2077 83.0081 25.9919 82.7923 25.7182 82.691L25.0342 82.4378C24.1636 82.1157 24.1636 80.8843 25.0342 80.5622L25.7182 80.309C25.9919 80.2077 26.2077 79.9919 26.309 79.7182L26.5622 79.0342Z" fill="#324EFF"/>
<defs>
<filter id="filter0_d_62_207" x="0.5" y="0.5" width="143" height="143" filterUnits="userSpaceOnUse" color-interpolation-filters="sRGB">
<feFlood flood-opacity="0" result="BackgroundImageFix"/>
<feColorMatrix in="SourceAlpha" type="matrix" values="0 0 0 0 0 0 0 0 0 0 0 0 0 0 0 0 0 0 127 0" result="hardAlpha"/>
<feOffset dy="4"/>
<feGaussianBlur stdDeviation="16.5"/>
<feComposite in2="hardAlpha" operator="out"/>
<feColorMatrix type="matrix" values="0 0 0 0 0.00784314 0 0 0 0 0.286274 0 0 0 0 0.992157 0 0 0 0.13 0"/>
<feBlend mode="normal" in2="BackgroundImageFix" result="effect1_dropShadow_62_207"/>
<feBlend mode="normal" in="SourceGraphic" in2="effect1_dropShadow_62_207" result="shape"/>
</filter>
<filter id="filter1_f_62_207" x="39.6396" y="39" width="67.3604" height="57.1658" filterUnits="userSpaceOnUse" color-interpolation-filters="sRGB">
<feFlood flood-opacity="0" result="BackgroundImageFix"/>
<feBlend mode="normal" in="SourceGraphic" in2="BackgroundImageFix" result="shape"/>
<feGaussianBlur stdDeviation="9" result="effect1_foregroundBlur_62_207"/>
</filter>
</defs>
</svg>
