<svg width="215" height="215" viewBox="0 0 215 215" fill="none" xmlns="http://www.w3.org/2000/svg">
<circle cx="107.5" cy="107.5" r="107.5" fill="#324EFF"/>
<g clip-path="url(#clip0_0_1188)">
<path fill-rule="evenodd" clip-rule="evenodd" d="M99.8206 69.1073C102.51 69.1062 105.152 69.8113 107.484 71.1521C109.815 72.4929 111.753 74.4224 113.105 76.7475L113.481 77.4462L115.93 76.0334C118.852 74.3456 122.248 73.6671 125.594 74.1027C128.94 74.5384 132.05 76.0638 134.442 78.4434C136.834 80.823 138.376 83.9243 138.83 87.2679C139.283 90.6115 138.623 94.0114 136.95 96.9421L136.516 97.6562L138.966 99.0691C141.888 100.756 144.172 103.358 145.468 106.473C146.763 109.588 146.996 113.043 146.131 116.304C145.267 119.565 143.352 122.451 140.684 124.515C138.016 126.58 134.742 127.708 131.368 127.726L130.535 127.71V130.536C130.536 133.914 129.423 137.197 127.369 139.879C125.315 142.56 122.435 144.49 119.174 145.369C115.912 146.247 112.452 146.027 109.329 144.74C106.206 143.454 103.594 141.174 101.898 138.253L101.514 137.554L99.0681 138.967C96.1463 140.655 92.75 141.333 89.404 140.898C86.058 140.462 82.9486 138.936 80.5563 136.557C78.1641 134.177 76.6221 131.076 76.1687 127.732C75.7153 124.389 76.3758 120.989 78.048 118.058L78.4818 117.344L76.0324 115.931C73.1107 114.244 70.8258 111.642 69.5307 108.527C68.2356 105.412 68.0024 101.957 68.867 98.6959C69.7316 95.4349 71.646 92.5494 74.3144 90.4851C76.9828 88.4208 80.2567 87.2926 83.6303 87.2748L84.4634 87.2902V84.4644C84.4634 80.3915 86.0814 76.4853 88.9614 73.6053C91.8415 70.7253 95.7476 69.1073 99.8206 69.1073ZM117.873 110.522L117.612 126.109C117.602 126.687 117.463 127.256 117.203 127.773C116.943 128.289 116.569 128.74 116.111 129.092L115.692 129.369L108.183 133.707C108.89 135.257 110.093 136.527 111.602 137.319C113.11 138.111 114.839 138.379 116.516 138.082C118.194 137.784 119.725 136.938 120.869 135.675C122.013 134.413 122.705 132.806 122.837 131.108L122.856 130.536V113.512L117.873 110.522ZM110.068 117.997L96.4382 125.56C95.8588 125.882 95.206 126.048 94.5433 126.043C93.8806 126.037 93.2306 125.861 92.6565 125.529L85.1468 121.191C84.1266 122.618 83.6254 124.351 83.7267 126.103C83.8279 127.854 84.5255 129.518 85.7034 130.818C86.8813 132.118 88.4687 132.975 90.2015 133.248C91.9344 133.521 93.7085 133.192 95.2288 132.317L109.972 123.806L110.068 117.997ZM120.384 97.207L115.304 100.029L128.673 108.045C129.241 108.387 129.712 108.87 130.038 109.447C130.364 110.024 130.535 110.676 130.535 111.339V120.012C132.279 120.177 134.026 119.741 135.488 118.777C136.951 117.813 138.04 116.379 138.576 114.711C139.111 113.044 139.061 111.243 138.434 109.608C137.807 107.972 136.64 106.6 135.127 105.719L120.384 97.207ZM84.4634 94.9841C82.7686 94.8193 81.067 95.2223 79.6261 96.1298C78.1852 97.0372 77.0866 98.3977 76.503 99.9974C75.9193 101.597 75.8837 103.345 76.4018 104.968C76.9198 106.59 77.9621 107.994 79.3649 108.959L79.8717 109.278L94.6145 117.789L99.6939 114.968L86.3255 106.951C85.8293 106.653 85.4069 106.247 85.0898 105.763C84.7727 105.279 84.569 104.73 84.4942 104.156L84.4634 103.661V94.9879V94.9841ZM99.8206 76.7859C97.7841 76.7859 95.831 77.5949 94.391 79.0349C92.951 80.4749 92.142 82.428 92.142 84.4644V101.488L97.1254 104.479L97.3865 88.8911C97.3972 88.2277 97.5796 87.5783 97.916 87.0064C98.2525 86.4344 98.7314 85.9594 99.3061 85.6277L106.816 81.2932C106.205 79.9497 105.221 78.8103 103.981 78.011C102.74 77.2117 101.296 76.7864 99.8206 76.7859ZM130.258 85.4934C129.292 83.8193 127.73 82.5712 125.884 81.9983C124.038 81.4254 122.044 81.5698 120.299 82.4027L119.77 82.683L105.027 91.1947L104.931 97.0035L118.56 89.4402C119.065 89.1594 119.627 88.9963 120.204 88.9631C120.781 88.9298 121.359 89.0273 121.893 89.2482L122.342 89.4709L129.855 93.8093C131.552 91.4289 131.813 88.1847 130.258 85.4934Z" fill="white"/>
</g>
<defs>
<clipPath id="clip0_0_1188">
<rect width="92.1429" height="92.1429" fill="white" transform="translate(61.4277 61.4287)"/>
</clipPath>
</defs>
</svg>
